<?xml version="1.0" encoding="UTF-8" standalone="no"?>
<!-- Generator: Adobe Illustrator 15.0.2, SVG Export Plug-In . SVG Version: 6.00 Build 0)  -->

<svg
   xmlns:dc="http://purl.org/dc/elements/1.1/"
   xmlns:cc="http://creativecommons.org/ns#"
   xmlns:rdf="http://www.w3.org/1999/02/22-rdf-syntax-ns#"
   xmlns:svg="http://www.w3.org/2000/svg"
   xmlns="http://www.w3.org/2000/svg"
   xmlns:sodipodi="http://sodipodi.sourceforge.net/DTD/sodipodi-0.dtd"
   xmlns:inkscape="http://www.inkscape.org/namespaces/inkscape"
   version="1.1"
   id="Layer_1"
   x="0px"
   y="0px"
   width="419"
   height="550"
   viewBox="0 0 419 549.99998"
   enable-background="new 0 0 240.94 269.29"
   xml:space="preserve"
   inkscape:version="0.48.4 r9939"
   sodipodi:docname="faq.svg"><metadata
   id="metadata3320"><rdf:RDF><cc:Work
       rdf:about=""><dc:format>image/svg+xml</dc:format><dc:type
         rdf:resource="http://purl.org/dc/dcmitype/StillImage" /><dc:title></dc:title></cc:Work></rdf:RDF></metadata><defs
   id="defs3318" /><sodipodi:namedview
   pagecolor="#ffffff"
   bordercolor="#666666"
   borderopacity="1"
   objecttolerance="10"
   gridtolerance="10"
   guidetolerance="10"
   inkscape:pageopacity="0"
   inkscape:pageshadow="2"
   inkscape:window-width="1366"
   inkscape:window-height="706"
   id="namedview3316"
   showgrid="false"
   fit-margin-top="0"
   fit-margin-left="0"
   fit-margin-right="0"
   fit-margin-bottom="0"
   inkscape:snap-page="true"
   inkscape:zoom="0.8763786"
   inkscape:cx="209.47"
   inkscape:cy="229.57316"
   inkscape:window-x="-8"
   inkscape:window-y="-8"
   inkscape:window-maximized="1"
   inkscape:current-layer="Layer_1" />
<path
   clip-rule="evenodd"
   d="M 29,-2.9081248e-6 C 29,8.6669971 29,17.332997 29,25.999997 c -9.151,1.516 -24.661,-3.328 -29,3 0,-9.667 0,-19.3329999 0,-28.9999999081248 9.667,0 19.333,0 29,0 z"
   id="path2986"
   inkscape:connector-curvature="0"
   style="fill:#ffffff;fill-rule:evenodd" />
<path
   clip-rule="evenodd"
   d="m 33,-2.9081248e-6 c 9.667,0 19.333,0 29,0 C 61.407,8.7409971 63.232,19.898997 61,26.999997 c -6.491,-2.245 -22.386,0.368 -28,-1 0,-8.666 0,-17.3329999 0,-25.9999999081248 z"
   id="path2988"
   inkscape:connector-curvature="0"
   style="fill:#ffffff;fill-rule:evenodd" />
<path
   clip-rule="evenodd"
   d="m 66,-2.9081248e-6 c 6,0 12,0 18,0 C 87.001,10.998997 93.334,18.665997 99,26.999997 c -9.069,-2.264 -22.282,-0.385 -33,-1 0,-8.666 0,-17.3329999 0,-25.9999999081248 z"
   id="path2990"
   inkscape:connector-curvature="0"
   style="fill:#ffffff;fill-rule:evenodd" />
<path
   clip-rule="evenodd"
   d="m 89,-2.9081248e-6 c 5.667,0 11.333,0 17,0 6.346,28.1539999081248 61.887,29.0179999081248 68,0 6,0 12,0 18,0 C 179.673,51.328997 97.369,47.718997 89,-2.9081248e-6 z"
   id="path2992"
   inkscape:connector-curvature="0"
   style="fill:#ffffff;fill-rule:evenodd" />
<path
   clip-rule="evenodd"
   d="m 110,-2.9081248e-6 c 19.667,0 39.333,0 59,0 -6.928,24.0029999081248 -51.554,22.1579999081248 -59,0 z"
   id="path2994"
   inkscape:connector-curvature="0"
   style="fill:#ffffff;fill-rule:evenodd" />
<path
   clip-rule="evenodd"
   d="m 198,-2.9081248e-6 c 73.667,0 147.333,0 221,0 C 419,9.3329971 419,18.666997 419,27.999997 c -1.255,-3.412 -7.793,-1.541 -12,-2 2.309,-3.301 12.145,-3.476 9,-9 -10.727,5.964 -28.382,9.054 -40,-1 -3.663,-3.17 -6.284,-7.9399999 -8,-12.9999999 -5.961,23.7129999 -51.068,27.1409999 -56,0 -5.58,4.562 -5.816,10.7429999 -12,14.9999999 -16.381,11.278 -40.681,2.276 -45,-15.9999999 C 249.828,28.936997 200.942,29.228997 198,-2.9081248e-6 z"
   id="path2996"
   inkscape:connector-curvature="0"
   style="fill:#ffffff;fill-rule:evenodd" />
<path
   clip-rule="evenodd"
   d="m 194,5.9999971 c 5.693,7.6399999 10.131,16.5359999 21,18.9999999 -9.006,2.328 -22.329,0.338 -33,1 4.264,-6.402 9.757,-11.576 12,-19.9999999 z"
   id="path2998"
   inkscape:connector-curvature="0"
   style="fill:#ffffff;fill-rule:evenodd" />
<path
   clip-rule="evenodd"
   d="m 254,12.999997 c 5.676,3.991 8.987,10.346 17,12 -9.006,2.328 -22.329,0.338 -33,1 6.148,-3.519 12.188,-7.146 16,-13 z"
   id="path3000"
   inkscape:connector-curvature="0"
   style="fill:#ffffff;fill-rule:evenodd" />
<path
   clip-rule="evenodd"
   d="m 312,12.999997 c 2.913,6.087 8.449,9.551 15,12 -8.673,2.327 -21.662,0.338 -32,1 6.686,-3.315 11.261,-8.739 17,-13 z"
   id="path3002"
   inkscape:connector-curvature="0"
   style="fill:#ffffff;fill-rule:evenodd" />
<path
   clip-rule="evenodd"
   d="m 366,12.999997 c 6.942,3.058 9.298,10.702 18,12 -9.006,2.328 -22.329,0.338 -33,1 5.373,-3.96 12.555,-6.112 15,-13 z"
   id="path3004"
   inkscape:connector-curvature="0"
   style="fill:#ffffff;fill-rule:evenodd" />
<path
   clip-rule="evenodd"
   d="m 282,29.999997 c 1.258,4.507 -5.673,9.144 -9,15 -3.55,6.249 -6.254,13.003 -7,21 -5.459,-12.541 -8.403,-27.597 -20,-34 6.389,-3.433 26.486,1.298 36,-2 z"
   id="path3006"
   inkscape:connector-curvature="0"
   style="fill:#ffffff;fill-rule:evenodd" />
<path
   clip-rule="evenodd"
   d="m 313,29.999997 c 10.346,2.345 29.275,0.231 38,1 -10.449,7.884 -14.878,21.789 -20,35 -0.984,-17.015 -10.259,-25.742 -18,-36 z"
   id="path3008"
   inkscape:connector-curvature="0"
   style="fill:#ffffff;fill-rule:evenodd" />
<path
   clip-rule="evenodd"
   d="m 380,29.999997 c 7.928,1.767 29.205,0.328 38,1 -10.086,7.914 -16.083,19.917 -19,35 -3.615,-14.718 -10.303,-26.364 -19,-36 z"
   id="path3010"
   inkscape:connector-curvature="0"
   style="fill:#ffffff;fill-rule:evenodd" />
<path
   clip-rule="evenodd"
   d="m 0,30.999997 c 17.372,0 34.66,0 52,0 17.555,0 36.66,-2.905 51,0 6.625,1.342 11.421,7.05 17,9 21.738,7.599 41.064,1.129 56,-9 13,0 26,0 39,0 0.925,4.168 -6.847,8.253 -10,14 -4.513,8.226 -6.9,19.041 -7,31 -6,0 -12,0 -18,0 -7.972,-8.561 -16.645,-18.931 -31,-21 -40.536,-5.844 -107.027,4.417 -149,0 0,-8 0,-16 0,-24 z"
   id="path3012"
   inkscape:connector-curvature="0"
   style="fill:#ffffff;fill-rule:evenodd" />
<path
   clip-rule="evenodd"
   d="m 228,30.999997 c 3.981,27.365 2.01,65.973 1,95.000003 -36.109,-7.904 -35.415,-85.790003 -1,-95.000003 z"
   id="path3014"
   inkscape:connector-curvature="0"
   style="fill:#ffffff;fill-rule:evenodd" />
<path
   clip-rule="evenodd"
   d="m 234,30.999997 c 35.814,7.395 36.59,87.843003 0,95.000003 0,-31.666003 0,-63.333003 0,-95.000003 z"
   id="path3016"
   inkscape:connector-curvature="0"
   style="fill:#ffffff;fill-rule:evenodd" />
<path
   clip-rule="evenodd"
   d="m 301,30.999997 c 35.785,7.927 36.075,87.164003 0,95.000003 0,-31.666003 0,-63.333003 0,-95.000003 z"
   id="path3018"
   inkscape:connector-curvature="0"
   style="fill:#ffffff;fill-rule:evenodd" />
<path
   clip-rule="evenodd"
   d="m 361,30.999997 c 0.667,0 1.333,0 2,0 0,31.667 0,63.333 0,95.000003 -36.461,-6.878 -35.27,-85.522003 -2,-95.000003 z"
   id="path3020"
   inkscape:connector-curvature="0"
   style="fill:#ffffff;fill-rule:evenodd" />
<path
   clip-rule="evenodd"
   d="m 368,126 c -1.664,-29.349003 -1.664,-65.651003 0,-95.000003 35.617,8.328 35.937,86.762003 0,95.000003 z"
   id="path3022"
   inkscape:connector-curvature="0"
   style="fill:#ffffff;fill-rule:evenodd" />
<path
   clip-rule="evenodd"
   d="m 294,31.999997 c 4.609,27.108 0.71,63.022 2,94.000003 -34.965,-8.304 -35.398,-83.587003 -2,-94.000003 z"
   id="path3024"
   inkscape:connector-curvature="0"
   style="fill:#ffffff;fill-rule:evenodd" />
<path
   clip-rule="evenodd"
   d="m 419,36.999997 c 0,27.667 0,55.333 0,83.000003 -21.796,-13.726 -20.449,-67.769003 -1,-83.000003 0.333,0 0.667,0 1,0 z"
   id="path3026"
   inkscape:connector-curvature="0"
   style="fill:#ffffff;fill-rule:evenodd" />
<path
   clip-rule="evenodd"
   d="m 0,59.999997 c 2,0 4,0 6,0 -1.433,3.901 -3.522,7.144 -6,10 0,-3.333 0,-6.666 0,-10 z"
   id="path3028"
   inkscape:connector-curvature="0"
   style="fill:#ffffff;fill-rule:evenodd" />
<path
   clip-rule="evenodd"
   d="m 15,59.999997 c 11,0 22,0 33,0 -5.594,9.406 -9.968,20.032 -18,27 -3.898,-10.102 -10.94,-17.06 -15,-27 z"
   id="path3030"
   inkscape:connector-curvature="0"
   style="fill:#ffffff;fill-rule:evenodd" />
<path
   clip-rule="evenodd"
   d="m 57,59.999997 c 11,0 22,0 33,0 -6.181,8.819 -10.24,19.76 -18,27 -3.75,-10.249 -11.382,-16.618 -15,-27 z"
   id="path3032"
   inkscape:connector-curvature="0"
   style="fill:#ffffff;fill-rule:evenodd" />
<path
   clip-rule="evenodd"
   d="m 124,59.999997 c -9.287,7.713 -17.142,16.858 -19,32 -9.667,0 -19.333,0 -29,0 5.784,-11.216 13.135,-20.865 19,-32 9.667,0 19.333,0 29,0 z"
   id="path3034"
   inkscape:connector-curvature="0"
   style="fill:#ffffff;fill-rule:evenodd" />
<path
   clip-rule="evenodd"
   d="m 140,60.999997 c 4.615,18.051 0.705,44.628003 2,66.000003 -21.819,-7.102 -20.46,-56.245003 -2,-66.000003 z"
   id="path3036"
   inkscape:connector-curvature="0"
   style="fill:#ffffff;fill-rule:evenodd" />
<path
   clip-rule="evenodd"
   d="m 146,60.999997 c 21.294,7.357 21.582,58.731003 0,66.000003 0,-22 0,-44.000003 0,-66.000003 z"
   id="path3038"
   inkscape:connector-curvature="0"
   style="fill:#ffffff;fill-rule:evenodd" />
<path
   clip-rule="evenodd"
   d="m 0,91.999997 c 0,-4.667 0,-9.333 0,-14 4.14,-4.194 6.503,-10.164 10,-15 7.17,8.497 12.923,18.411 18,29 -9.333,0 -18.667,0 -28,0 z"
   id="path3040"
   inkscape:connector-curvature="0"
   style="fill:#ffffff;fill-rule:evenodd" />
<path
   clip-rule="evenodd"
   d="m 51,62.999997 c 8.424,7.576 13.04,18.96 19,29 -12,0 -24,0 -36,0 5.29,-10.043 12.112,-18.555 17,-29 z"
   id="path3042"
   inkscape:connector-curvature="0"
   style="fill:#ffffff;fill-rule:evenodd" />
<path
   clip-rule="evenodd"
   d="m 129,62.999997 c 1.787,-0.282 2.052,0.945 1,1 C 118.865,78.738997 119.992,112.072 131,126 104.302,118.983 103.237,71.780997 129,62.999997 z"
   id="path3044"
   inkscape:connector-curvature="0"
   style="fill:#ffffff;fill-rule:evenodd" />
<path
   clip-rule="evenodd"
   d="m 157,63.999997 c 25.821,1.82 28.095,56.465003 0,61.000003 11.842,-12.271 12.46,-48.909003 0,-61.000003 z"
   id="path3046"
   inkscape:connector-curvature="0"
   style="fill:#ffffff;fill-rule:evenodd" />
<path
   clip-rule="evenodd"
   d="m 180,81.999997 c 4.018,-2.315 12.32,-0.347 18,-1 C 198.365,103.968 208.065,117.602 220,129 c -18.667,0 -37.333,0 -56,0 0.074,-4.89 6.438,-5.69 10,-10 7.318,-8.853 10.696,-23.367003 6,-37.000003 z"
   id="path3048"
   inkscape:connector-curvature="0"
   style="fill:#ffffff;fill-rule:evenodd" />
<path
   clip-rule="evenodd"
   d="M 265,90.999997 C 268.489,107.511 276.386,119.614 287,129 c -14.363,-0.637 -31.293,1.293 -44,-1 11.925,-7.742 18.751,-20.582 22,-37.000003 z"
   id="path3050"
   inkscape:connector-curvature="0"
   style="fill:#ffffff;fill-rule:evenodd" />
<path
   clip-rule="evenodd"
   d="M 331,90.999997 C 336.818,104.848 340.227,121.106 354,127 c -10.775,4.558 -29.92,0.747 -44,2 9.955,-9.711 19.697,-19.636 21,-38.000003 z"
   id="path3052"
   inkscape:connector-curvature="0"
   style="fill:#ffffff;fill-rule:evenodd" />
<path
   clip-rule="evenodd"
   d="m 419,126 c 0,1 0,2 0,3 -14,0 -28,0 -42,0 9.738,-9.929 19.327,-20.006 21,-38.000003 C 403.002,104.665 406.654,119.679 419,126 z"
   id="path3054"
   inkscape:connector-curvature="0"
   style="fill:#ffffff;fill-rule:evenodd" />
<path
   clip-rule="evenodd"
   d="m 0,95.999997 c 4.209,2.125 12.182,0.485 18,1 C 18,102 18,107 18,112 10.932,112.068 5.967,110.033 0,109 0,104.667 0,100.334 0,95.999997 z"
   id="path3056"
   inkscape:connector-curvature="0"
   style="fill:#ffffff;fill-rule:evenodd" />
<path
   clip-rule="evenodd"
   d="M 105,95.999997 C 106.341,102.396 107.556,107.254 110,112 c 3.671,7.129 9.71,10.598 14,17 -33.339,-0.661 -69.325,1.325 -101,-1 0.662,-10.338 -1.327,-23.327 1,-32.000003 27,0 54,0 81,0 z"
   id="path3058"
   inkscape:connector-curvature="0"
   style="fill:#ffffff;fill-rule:evenodd" />
<path
   clip-rule="evenodd"
   d="m 0,114 c 6.897,0.77 13.878,1.455 19,4 -0.481,5.186 1.077,12.41 -1,16 -6.913,-0.087 -11.645,-2.355 -18,-3 0,-5.666 0,-11.333 0,-17 z"
   id="path3060"
   inkscape:connector-curvature="0"
   style="fill:#ffffff;fill-rule:evenodd" />
<path
   clip-rule="evenodd"
   d="m 54,133 c -3.995,7.339 -9.281,13.386 -14,20 -2.859,-1.51 0.028,-13.739 -1,-20 4.424,-0.429 10.928,-1.495 15,0 z"
   id="path3062"
   inkscape:connector-curvature="0"
   style="fill:#ffffff;fill-rule:evenodd" />
<path
   clip-rule="evenodd"
   d="m 61,132 c 4.667,0 9.333,0 14,0 -3.546,8.454 -8.53,15.47 -15,21 0.551,-6.783 -1.174,-15.841 1,-21 z"
   id="path3064"
   inkscape:connector-curvature="0"
   style="fill:#ffffff;fill-rule:evenodd" />
<path
   clip-rule="evenodd"
   d="m 82,132 c 5.117,0.899 9.103,0.62 14,0 -1.559,6.553 -8.792,15.792 -15,21 0.551,-6.783 -1.174,-15.841 1,-21 z"
   id="path3066"
   inkscape:connector-curvature="0"
   style="fill:#ffffff;fill-rule:evenodd" />
<path
   clip-rule="evenodd"
   d="m 419,133 c 0,1.333 0,2.667 0,4 -19.863,-7.344 -23.407,28.108 0,23 0,1.667 0,3.333 0,5 -78.667,0 -157.333,0 -236,0 -1.341,-6.396 -2.556,-11.254 -5,-16 -3.651,-7.091 -9.547,-10.78 -14,-17 83.001,2.332 170.332,0.335 255,1 z m -230,16 c 0.318,7.726 5.812,12.073 17,11 24.716,-16.201 -18.078,-37.193 -17,-11 z m 38,11 c 15.262,3.327 20.745,-11.287 14,-21 -15.386,-12.657 -29.934,13.678 -14,21 z m 40,0 c 6.999,-2.208 9.468,-14.921 4,-21 -19.554,-15.371 -31.981,26.027 -4,21 z m 38,-14 c -1.482,-10.491 -18.514,-13.895 -24,-3 -3.994,24.102 26.444,20.296 24,3 z m 6,2 c 0.233,22.639 36.355,8.666 21,-9 -2.813,-1.225 -8.391,-4.892 -12,-2 -5.408,1.258 -8.581,4.752 -9,11 z m 31,-5 c -3.355,8.723 3.729,19.788 16,17 22.176,-9.481 -7.875,-38.125 -16,-17 z m 47,17 c 6.864,-2.342 9.442,-14.947 4,-21 -19.602,-15.572 -32.038,26.205 -4,21 z"
   id="path3068"
   inkscape:connector-curvature="0"
   style="fill:#ffffff;fill-rule:evenodd" />
<path
   clip-rule="evenodd"
   d="m 23,133 c 3.667,0 7.333,0 11,0 0,11 0,22 0,33 -3.667,0 -7.333,0 -11,0 0,-11 0,-22 0,-33 z"
   id="path3070"
   inkscape:connector-curvature="0"
   style="fill:#ffffff;fill-rule:evenodd" />
<path
   clip-rule="evenodd"
   d="m 124,133 c -9.873,7.461 -18.007,16.659 -19,33 -8.667,0 -17.333,0 -26,0 7.468,-11.198 16.273,-21.06 23,-33 7.333,0 14.667,0 22,0 z"
   id="path3072"
   inkscape:connector-curvature="0"
   style="fill:#ffffff;fill-rule:evenodd" />
<path
   clip-rule="evenodd"
   d="m 142,200 c -21.597,-6.88 -20.893,-56.678 -2,-66 4.647,18.02 0.681,44.652 2,66 z"
   id="path3074"
   inkscape:connector-curvature="0"
   style="fill:#ffffff;fill-rule:evenodd" />
<path
   clip-rule="evenodd"
   d="m 146,134 c 22.095,7.05 20.176,60.77 0,65 0,-21.666 0,-43.333 0,-65 z"
   id="path3076"
   inkscape:connector-curvature="0"
   style="fill:#ffffff;fill-rule:evenodd" />
<path
   clip-rule="evenodd"
   d="m 0,135 c 5.242,2.091 12.547,2.119 18,4 0,5.333 0,10.667 0,16 -6.284,-0.716 -11.569,-2.431 -18,-3 0,-5.666 0,-11.333 0,-17 z"
   id="path3078"
   inkscape:connector-curvature="0"
   style="fill:#ffffff;fill-rule:evenodd" />
<path
   clip-rule="evenodd"
   d="m 157,135 c 26.466,6.054 27.685,57.305 0,63 12.272,-13.831 11.493,-48.998 0,-63 z"
   id="path3080"
   inkscape:connector-curvature="0"
   style="fill:#ffffff;fill-rule:evenodd" />
<path
   clip-rule="evenodd"
   d="m 131,136 c -11.838,12.427 -12.294,48.702 0,61 -25.854,-1.506 -28.382,-56.866 0,-61 z"
   id="path3082"
   inkscape:connector-curvature="0"
   style="fill:#ffffff;fill-rule:evenodd" />
<path
   clip-rule="evenodd"
   d="m 54,140 c 2.324,6.676 0.34,17.66 1,26 -5.667,0 -11.333,0 -17,0 -1.404,-2.723 4.012,-7.836 7,-12 3.378,-4.707 7.286,-9.484 9,-14 z"
   id="path3084"
   inkscape:connector-curvature="0"
   style="fill:#ffffff;fill-rule:evenodd" />
<path
   clip-rule="evenodd"
   d="m 76,140 c 2.324,6.676 0.34,17.66 1,26 -6.333,0 -12.667,0 -19,0 5.549,-9.118 12.309,-17.025 18,-26 z"
   id="path3086"
   inkscape:connector-curvature="0"
   style="fill:#ffffff;fill-rule:evenodd" />
<path
   clip-rule="evenodd"
   d="m 200,141 c 11.033,-2.892 10.649,15.437 1,15 -7.569,-0.343 -10.526,-12.504 -1,-15 z"
   id="path3088"
   inkscape:connector-curvature="0"
   style="fill:#ffffff;fill-rule:evenodd" />
<path
   clip-rule="evenodd"
   d="m 224,151 c -1.842,-15.656 15.878,-12.346 16,-3 0.101,7.65 -11.509,11.709 -16,3 z"
   id="path3090"
   inkscape:connector-curvature="0"
   style="fill:#ffffff;fill-rule:evenodd" />
<path
   clip-rule="evenodd"
   d="m 262,141 c 9.482,-1.374 9.856,15.38 0,15 -8.082,-0.311 -11.505,-13.332 0,-15 z"
   id="path3092"
   inkscape:connector-curvature="0"
   style="fill:#ffffff;fill-rule:evenodd" />
<path
   clip-rule="evenodd"
   d="m 285,152 c -2.815,-15.919 15.03,-13.985 16,-5 0.852,7.889 -10.206,12.667 -16,5 z"
   id="path3094"
   inkscape:connector-curvature="0"
   style="fill:#ffffff;fill-rule:evenodd" />
<path
   clip-rule="evenodd"
   d="m 322,141 c 10.701,-2.779 10.815,15.261 1,15 -7.979,-0.212 -11.195,-12.352 -1,-15 z"
   id="path3096"
   inkscape:connector-curvature="0"
   style="fill:#ffffff;fill-rule:evenodd" />
<path
   clip-rule="evenodd"
   d="m 351,141 c 5.387,-2.167 10.511,1.092 11,6 2.006,20.102 -29.077,1.272 -11,-6 z"
   id="path3098"
   inkscape:connector-curvature="0"
   style="fill:#ffffff;fill-rule:evenodd" />
<path
   clip-rule="evenodd"
   d="m 383,141 c 12.559,-2.442 9.646,15.07 1,15 -5.312,-0.043 -13.615,-12.547 -1,-15 z"
   id="path3100"
   inkscape:connector-curvature="0"
   style="fill:#ffffff;fill-rule:evenodd" />
<path
   clip-rule="evenodd"
   d="m 419,141 c 0,4.667 0,9.333 0,14 -15.463,7.578 -15.31,-21.463 0,-14 z"
   id="path3102"
   inkscape:connector-curvature="0"
   style="fill:#ffffff;fill-rule:evenodd" />
<path
   clip-rule="evenodd"
   d="m 0,157 c 7.337,0.33 13.823,1.51 19,4 -0.481,5.186 1.077,12.41 -1,16 -5.967,-1.033 -10.932,-3.068 -18,-3 0,-5.666 0,-11.333 0,-17 z"
   id="path3104"
   inkscape:connector-curvature="0"
   style="fill:#ffffff;fill-rule:evenodd" />
<path
   clip-rule="evenodd"
   d="m 190,169 c 5.306,15.027 10.998,29.669 16,45 -10,0 -20,0 -30,0 -7.646,16.687 -12.673,35.994 -20,53 -15.333,0 -30.667,0 -46,0 0,-3.333 0,-6.667 0,-10 -13,0 -26,0 -39,0 0,-6.667 0,-13.333 0,-20 14.333,0 28.667,0 43,0 2.229,-7.105 3.054,-15.613 5,-23 -16,0 -32,0 -48,0 0,-14.333 0,-28.667 0,-43 11.667,0 23.333,0 35,0 -0.122,44.706 78.115,44.062 76,-2 2.667,0 5.333,0 8,0 z m -64,68 c 5.42,6.913 9.005,15.661 15,22 3.322,-8.678 9.681,-14.319 13,-23 -5.364,-6.303 -8.759,-14.574 -14,-21 -4.669,7.331 -9.095,14.905 -14,22 z"
   id="path3106"
   inkscape:connector-curvature="0"
   style="fill:#ffffff;fill-rule:evenodd" />
<path
   clip-rule="evenodd"
   d="m 195,169 c 4.333,0 8.667,0 13,0 24.121,67.881 51.255,138.075 73,205 -4,0 -8,0 -12,0 -25.123,-67.876 -50.041,-135.96 -74,-205 z"
   id="path3108"
   inkscape:connector-curvature="0"
   style="fill:#ffffff;fill-rule:evenodd" />
<path
   clip-rule="evenodd"
   d="m 213,169 c 5,0 10,0 15,0 23.503,69.164 49.854,135.479 73,205 -4.667,0 -9.333,0 -14,0 -25.286,-67.713 -49.514,-136.487 -74,-205 z"
   id="path3110"
   inkscape:connector-curvature="0"
   style="fill:#ffffff;fill-rule:evenodd" />
<path
   clip-rule="evenodd"
   d="m 233,169 c 4.333,0 8.667,0 13,0 1.175,7.158 4.748,11.918 6,19 -4,0 -8,0 -12,0 -3.062,-5.604 -5.385,-11.948 -7,-19 z"
   id="path3112"
   inkscape:connector-curvature="0"
   style="fill:#ffffff;fill-rule:evenodd" />
<path
   clip-rule="evenodd"
   d="m 251,169 c 4.667,0 9.333,0 14,0 1.091,7.243 4.664,12.003 6,19 -4.667,0 -9.333,0 -14,0 -1.237,-7.096 -4.763,-11.904 -6,-19 z"
   id="path3114"
   inkscape:connector-curvature="0"
   style="fill:#ffffff;fill-rule:evenodd" />
<path
   clip-rule="evenodd"
   d="m 270,169 c 4.333,0 8.667,0 13,0 1.352,6.981 5.091,11.576 6,19 -4,0 -8,0 -12,0 -3.251,-5.416 -5.573,-11.76 -7,-19 z"
   id="path3116"
   inkscape:connector-curvature="0"
   style="fill:#ffffff;fill-rule:evenodd" />
<path
   clip-rule="evenodd"
   d="m 288,169 c 4.667,0 9.333,0 14,0 1.237,7.096 4.763,11.904 6,19 -4.333,0 -8.667,0 -13,0 -3.111,-5.556 -5.007,-12.326 -7,-19 z"
   id="path3118"
   inkscape:connector-curvature="0"
   style="fill:#ffffff;fill-rule:evenodd" />
<path
   clip-rule="evenodd"
   d="m 307,169 c 4.333,0 8.667,0 13,0 1.352,6.981 5.091,11.576 6,19 -4,0 -8,0 -12,0 -3.062,-5.604 -5.385,-11.948 -7,-19 z"
   id="path3120"
   inkscape:connector-curvature="0"
   style="fill:#ffffff;fill-rule:evenodd" />
<path
   clip-rule="evenodd"
   d="m 325,169 c 4.667,0 9.333,0 14,0 1.336,6.997 4.909,11.757 6,19 -4.333,0 -8.667,0 -13,0 -2.718,-5.949 -4.863,-12.47 -7,-19 z"
   id="path3122"
   inkscape:connector-curvature="0"
   style="fill:#ffffff;fill-rule:evenodd" />
<path
   clip-rule="evenodd"
   d="m 344,169 c 4.333,0 8.667,0 13,0 1.789,6.544 5.332,11.334 6,19 -4,0 -8,0 -12,0 -3.111,-5.556 -5.007,-12.326 -7,-19 z"
   id="path3124"
   inkscape:connector-curvature="0"
   style="fill:#ffffff;fill-rule:evenodd" />
<path
   clip-rule="evenodd"
   d="m 362,169 c 4.667,0 9.333,0 14,0 1.921,6.413 4.859,11.807 6,19 -4.333,0 -8.667,0 -13,0 -2.59,-6.077 -4.735,-12.598 -7,-19 z"
   id="path3126"
   inkscape:connector-curvature="0"
   style="fill:#ffffff;fill-rule:evenodd" />
<path
   clip-rule="evenodd"
   d="m 381,169 c 4.333,0 8.667,0 13,0 1.789,6.544 5.332,11.334 6,19 -4,0 -8,0 -12,0 -2.661,-6.005 -5.102,-12.232 -7,-19 z"
   id="path3128"
   inkscape:connector-curvature="0"
   style="fill:#ffffff;fill-rule:evenodd" />
<path
   clip-rule="evenodd"
   d="m 419,184 c 0,1.333 0,2.667 0,4 -4.333,0 -8.667,0 -13,0 -2.448,-5.886 -4.01,-12.657 -7,-18 2.695,-2.304 9.645,-0.355 14,-1 2.445,4.555 2.734,11.266 6,15 z"
   id="path3130"
   inkscape:connector-curvature="0"
   style="fill:#ffffff;fill-rule:evenodd" />
<path
   clip-rule="evenodd"
   d="m 67,172 c -0.634,13.699 1.289,29.956 -1,42 -7.667,0 -15.333,0 -23,0 -2.333,32 -0.334,68.333 -1,102 -4.523,2.144 -12.862,0.472 -19,1 0.667,-48.333 -1.333,-99.333 1,-146 14.031,0.635 30.625,-1.291 43,1 z"
   id="path3132"
   inkscape:connector-curvature="0"
   style="fill:#ffffff;fill-rule:evenodd" />
<path
   clip-rule="evenodd"
   d="m 0,178 c 5.772,1.228 11.32,2.68 18,3 0,5.667 0,11.333 0,17 -5.967,-1.033 -10.932,-3.068 -18,-3 0,-5.666 0,-11.333 0,-17 z"
   id="path3134"
   inkscape:connector-curvature="0"
   style="fill:#ffffff;fill-rule:evenodd" />
<path
   clip-rule="evenodd"
   d="m 419,192 c 0,6.333 0,12.667 0,19 -67.056,1.612 -152.739,-15.407 -151,55 -10.174,-23.493 -18.484,-48.849 -27,-74 59.333,0 118.667,0 178,0 z m -164,21 c 0.564,19.262 29.675,16.006 28,-2 -0.576,-6.196 -6.623,-14.211 -18,-11 -6.415,2.174 -10.198,6.249 -10,13 z"
   id="path3136"
   inkscape:connector-curvature="0"
   style="fill:#ffffff;fill-rule:evenodd" />
<path
   clip-rule="evenodd"
   d="m 0,199 c 6.804,0.862 13.291,2.043 19,4 0,5.333 0,10.667 0,16 -7.594,0.261 -12.744,-1.922 -19,-3 0,-5.666 0,-11.333 0,-17 z"
   id="path3138"
   inkscape:connector-curvature="0"
   style="fill:#ffffff;fill-rule:evenodd" />
<path
   clip-rule="evenodd"
   d="m 278,209 c 0.793,8.584 -2.691,12.582 -8,13 -20.047,1.578 -4.211,-32.588 8,-13 z"
   id="path3140"
   inkscape:connector-curvature="0"
   style="fill:#ffffff;fill-rule:evenodd" />
<path
   clip-rule="evenodd"
   d="m 350,314 c 2.839,5.828 6.46,10.873 12,14 -2.245,3.755 -8.215,3.785 -11,7 -7.126,-2.874 -9.783,-10.217 -15,-15 -76.43,15.578 -85.764,-101.593 -16,-105 56.695,-2.769 74.509,72.234 30,99 z m -19,-80 c -38.61,-8.017 -43.208,41.83 -27,62 5.656,2.688 13.355,8.629 22,5 -2.918,-5.748 -7.979,-9.354 -10,-16 4.165,-0.502 5.835,-3.498 10,-4 5.579,4.088 8.854,10.479 12,17 21.549,-10.009 17.494,-60.833 -7,-64 z"
   id="path3142"
   inkscape:connector-curvature="0"
   style="fill:#ffffff;fill-rule:evenodd" />
<path
   clip-rule="evenodd"
   d="m 349,215 c 14.667,0 29.333,0 44,0 2.326,35.007 0.338,74.328 1,111 -15.584,-0.083 -33.937,2.604 -38,-9 3.613,-6.321 9.761,-8.615 14,-15 13.197,-19.872 11.616,-52.054 -3,-71 -5.659,-7.336 -11.804,-9.538 -18,-16 z"
   id="path3144"
   inkscape:connector-curvature="0"
   style="fill:#ffffff;fill-rule:evenodd" />
<path
   clip-rule="evenodd"
   d="m 419,215 c 0,7 0,14 0,21 -20.239,9.413 -21.763,56.009 0,65 0,8.333 0,16.667 0,25 -7,0 -14,0 -21,0 0,-37 0,-74 0,-111 7,0 14,0 21,0 z"
   id="path3146"
   inkscape:connector-curvature="0"
   style="fill:#ffffff;fill-rule:evenodd" />
<path
   clip-rule="evenodd"
   d="m 114,218 c -1.244,5.089 -1.146,11.521 -4,15 -14.333,0 -28.667,0 -43,0 0,9 0,18 0,27 11.004,2.329 26.33,0.336 39,1 0,5 0,10 0,15 -12.667,0 -25.333,0 -38,0 -2.33,11.671 -0.336,27.664 -1,41 -7,0 -14,0 -21,0 0,-33 0,-66 0,-99 22.667,0 45.333,0 68,0 z"
   id="path3148"
   inkscape:connector-curvature="0"
   style="fill:#ffffff;fill-rule:evenodd" />
<path
   clip-rule="evenodd"
   d="m 208,218 c 11.532,33.134 23.914,65.42 35,99 -7,0 -14,0 -21,0 -0.894,-7.773 -4.589,-12.745 -6,-20 -9.884,1.311 -32.125,1.896 -45,0 -2.95,6.05 -4.863,13.137 -7,20 -7,0 -14,0 -21,0 12.255,-32.745 23.232,-66.768 36,-99 9.667,0 19.333,0 29,0 z m -32,63 c 11.333,0 22.667,0 34,0 -4.809,-16.524 -11.76,-30.907 -16,-48 -8.044,13.956 -11.769,32.231 -18,48 z"
   id="path3150"
   inkscape:connector-curvature="0"
   style="fill:#ffffff;fill-rule:evenodd" />
<path
   clip-rule="evenodd"
   d="m 0,220 c 5.319,2.014 11.872,2.795 18,4 0,5.333 0,10.667 0,16 -6.431,-0.569 -11.716,-2.284 -18,-3 0,-5.666 0,-11.333 0,-17 z"
   id="path3152"
   inkscape:connector-curvature="0"
   style="fill:#ffffff;fill-rule:evenodd" />
<path
   clip-rule="evenodd"
   d="m 139,224 c 5.355,2.645 7.162,8.838 10,14 -4.685,2.648 -4.303,10.364 -10,12 -2.14,-4.86 -4.948,-9.052 -8,-13 2.696,-4.304 5.896,-8.104 8,-13 z"
   id="path3154"
   inkscape:connector-curvature="0"
   style="fill:#ffffff;fill-rule:evenodd" />
<path
   clip-rule="evenodd"
   d="m 341,292 c -4.884,-5.116 -7.826,-12.174 -14,-16 -7.009,2.324 -12.549,6.118 -19,9 3.733,3.933 8.226,7.107 10,13 -27.685,-4.798 -26.612,-68.44 12,-60 19.802,3.876 22.557,38.648 11,54 z"
   id="path3156"
   inkscape:connector-curvature="0"
   style="fill:#ffffff;fill-rule:evenodd" />
<path
   clip-rule="evenodd"
   d="m 0,242 c 7.116,0.551 13.512,1.821 19,4 -0.481,5.186 1.077,12.41 -1,16 -6.355,-0.645 -11.087,-2.913 -18,-3 0,-5.666 0,-11.333 0,-17 z"
   id="path3158"
   inkscape:connector-curvature="0"
   style="fill:#ffffff;fill-rule:evenodd" />
<path
   clip-rule="evenodd"
   d="m 419,243 c 0,17.333 0,34.667 0,52 -15.395,-8.803 -15.395,-43.198 0,-52 z"
   id="path3160"
   inkscape:connector-curvature="0"
   style="fill:#ffffff;fill-rule:evenodd" />
<path
   clip-rule="evenodd"
   d="m 193,246 c 4.292,9.708 7.205,20.795 11,31 -7,0 -14,0 -21,0 2.081,-11.586 6.863,-20.47 10,-31 z"
   id="path3162"
   inkscape:connector-curvature="0"
   style="fill:#ffffff;fill-rule:evenodd" />
<path
   clip-rule="evenodd"
   d="m 0,263 c 5.146,2.187 12.854,1.813 18,4 0,5.333 0,10.667 0,16 -6.006,-0.994 -11.32,-2.68 -18,-3 0,-5.666 0,-11.333 0,-17 z"
   id="path3164"
   inkscape:connector-curvature="0"
   style="fill:#ffffff;fill-rule:evenodd" />
<path
   clip-rule="evenodd"
   d="m 154,271 c -2.542,13.833 -10.705,30.597 -15,46 -22.667,0 -45.333,0 -68,0 0,-12.333 0,-24.667 0,-37 12.667,0 25.333,0 38,0 2.27,-1.063 0.381,-6.286 1,-9 14.667,0 29.333,0 44,0 z"
   id="path3166"
   inkscape:connector-curvature="0"
   style="fill:#ffffff;fill-rule:evenodd" />
<path
   clip-rule="evenodd"
   d="m 0,284 c 6.355,0.645 11.087,2.913 18,3 1.749,4.251 0.745,11.255 1,17 -4.625,1.332 -11.876,-2.576 -19,-2 0,-6 0,-12 0,-18 z"
   id="path3168"
   inkscape:connector-curvature="0"
   style="fill:#ffffff;fill-rule:evenodd" />
<path
   clip-rule="evenodd"
   d="m 212,301 c 3.019,4.314 4.187,10.479 6,16 -16.333,0 -32.667,0 -49,0 0.947,-6.053 3.21,-10.789 5,-16 12.667,0 25.333,0 38,0 z"
   id="path3170"
   inkscape:connector-curvature="0"
   style="fill:#ffffff;fill-rule:evenodd" />
<path
   clip-rule="evenodd"
   d="m 0,306 c 6.675,0.324 11.325,2.676 18,3 0,2.667 0,5.333 0,8 -6,0 -12,0 -18,0 0,-3.667 0,-7.333 0,-11 z"
   id="path3172"
   inkscape:connector-curvature="0"
   style="fill:#ffffff;fill-rule:evenodd" />
<path
   clip-rule="evenodd"
   d="m 419,331 c 0,2.333 0,4.667 0,7 -18.228,-1.033 -18.133,29.947 0,29 0,2.333 0,4.667 0,7 -37.667,0 -75.333,0 -113,0 -2.378,-5.956 -3.847,-12.82 -7,-18 20.001,-2.332 44.332,-0.334 66,-1 3.952,3.715 5.19,10.143 11,12 28.294,4.492 24.356,-33.829 1,-29 -6.065,1.254 -7.999,5.838 -11,12 -23,0 -46,0 -69,0 -3.821,-14.179 -9.522,-26.478 -14,-40 11.854,9.222 29.041,18.189 51,14 4.226,6.107 9.322,11.345 15,16 13.855,-12.478 44.117,-8.55 70,-9 z"
   id="path3174"
   inkscape:connector-curvature="0"
   style="fill:#ffffff;fill-rule:evenodd" />
<path
   clip-rule="evenodd"
   d="m 0,321 c 37.333,0 74.667,0 112,0 2.217,6.449 0.418,16.915 1,25 -37.667,0 -75.333,0 -113,0 0,-8.333 0,-16.667 0,-25 z"
   id="path3176"
   inkscape:connector-curvature="0"
   style="fill:#ffffff;fill-rule:evenodd" />
<path
   clip-rule="evenodd"
   d="m 245,322 c 2.121,8.546 6.086,15.247 8,24 -45,0 -90,0 -135,0 -1.558,-5.79 -1.742,-18.238 0,-24 42.333,0 84.667,0 127,0 z"
   id="path3178"
   inkscape:connector-curvature="0"
   style="fill:#ffffff;fill-rule:evenodd" />
<path
   clip-rule="evenodd"
   d="m 379,343 c 15.968,-3.806 15.271,19.417 3,20 -10.645,0.506 -16.509,-16.78 -3,-20 z"
   id="path3180"
   inkscape:connector-curvature="0"
   style="fill:#ffffff;fill-rule:evenodd" />
<path
   clip-rule="evenodd"
   d="m 419,342 c 0,7 0,14 0,21 -11.261,-0.596 -12.136,-20.707 0,-21 z"
   id="path3182"
   inkscape:connector-curvature="0"
   style="fill:#ffffff;fill-rule:evenodd" />
<path
   clip-rule="evenodd"
   d="m 0,350 c 29.634,-8.49 36.643,30.288 14,35 17.077,2.305 18.723,33.187 0,35 16.656,3.275 18.474,32.104 1,36 20.964,6.325 14.689,43.236 -15,35 0,-47 0,-94 0,-141 z"
   id="path3184"
   inkscape:connector-curvature="0"
   style="fill:#ffffff;fill-rule:evenodd" />
<path
   clip-rule="evenodd"
   d="m 25,350 c 31.804,-10.388 45.577,26.613 21,35 15.64,2.897 17.898,32.747 0,35 7.265,5.068 15.11,9.557 13,24 -3.274,5.06 -6.897,9.77 -13,12 24.176,8.596 11.499,45.669 -21,35 8.508,-6.787 9.95,-28.771 -1,-34 10.12,-7.753 10.12,-29.247 0,-37 10.61,-5.159 10.398,-28.782 0,-34 9.42,-7.264 10.568,-27.931 1,-36 z"
   id="path3186"
   inkscape:connector-curvature="0"
   style="fill:#ffffff;fill-rule:evenodd" />
<path
   clip-rule="evenodd"
   d="m 56,350 c 9.333,0 18.667,0 28,0 0,47 0,94 0,141 -8.667,0 -17.333,0 -26,0 -0.846,-3.507 5.901,-9.205 6,-17 0.115,-8.997 -5.506,-13.005 -9,-19 11.677,-5.449 10.845,-28.261 0,-34 11.551,-7.859 10.185,-28.73 0,-37 12.307,-5.325 9.794,-26.865 1,-34 z"
   id="path3188"
   inkscape:connector-curvature="0"
   style="fill:#ffffff;fill-rule:evenodd" />
<path
   clip-rule="evenodd"
   d="m 90,350 c 17,0 34,0 51,0 2.329,45.004 0.336,94.33 1,141 -17.667,0 -35.333,0 -53,0 0.667,-46.667 -1.333,-96 1,-141 z m 28,47 c 16.614,-2.896 14.555,-32.661 -6,-29 -20.864,3.716 -11.386,32.03 6,29 z m -18,21 c -3.722,27.759 36.625,19.104 29,-3 -1.756,-5.092 -8.478,-11.133 -19,-8 -6.142,2.117 -9.251,5.415 -10,11 z m 1,34 c -5.799,15.869 9.095,26.982 23,20 7.093,-5.748 7.093,-19.252 0,-25 -3.216,-1.481 -11.028,-3.599 -15,-1 -4.048,0.618 -5.096,4.237 -8,6 z"
   id="path3190"
   inkscape:connector-curvature="0"
   style="fill:#ffffff;fill-rule:evenodd" />
<path
   clip-rule="evenodd"
   d="m 255,350 c 2.693,7.974 6.646,14.688 8,24 -39,0 -78,0 -117,0 0.659,-7.675 -1.323,-17.989 1,-24 36,0 72,0 108,0 z"
   id="path3192"
   inkscape:connector-curvature="0"
   style="fill:#ffffff;fill-rule:evenodd" />
<path
   clip-rule="evenodd"
   d="m 111,373 c 9.62,-3.516 13.187,1.622 14,7 4.042,26.719 -38.275,1.871 -14,-7 z"
   id="path3194"
   inkscape:connector-curvature="0"
   style="fill:#ffffff;fill-rule:evenodd" />
<path
   clip-rule="evenodd"
   d="m 146,378 c 10.667,0 21.333,0 32,0 -10.814,6.963 -22.195,13.985 -24,29 -2.41,20.052 10.209,32.062 24,40 -10.667,0 -21.333,0 -32,0 0,-23 0,-46 0,-69 z"
   id="path3196"
   inkscape:connector-curvature="0"
   style="fill:#ffffff;fill-rule:evenodd" />
<path
   clip-rule="evenodd"
   d="m 199,379 c 19.335,-2.332 42.999,-0.335 64,-1 -10.413,5.981 -22.194,14.471 -24,29 -2.282,18.357 9.696,32.771 24,40 -21.333,0 -42.667,0 -64,0 30.25,-7.382 33.891,-60.164 0,-68 z"
   id="path3198"
   inkscape:connector-curvature="0"
   style="fill:#ffffff;fill-rule:evenodd" />
<path
   clip-rule="evenodd"
   d="m 284,379 c 19.335,-2.332 42.999,-0.335 64,-1 -20.876,4.949 -32.558,39.185 -16,58 4.611,4.389 11.601,6.399 16,11 -21.333,0 -42.667,0 -64,0 30.116,-7.883 33.761,-59.635 0,-68 z"
   id="path3200"
   inkscape:connector-curvature="0"
   style="fill:#ffffff;fill-rule:evenodd" />
<path
   clip-rule="evenodd"
   d="m 419,378 c 0,3.333 0,6.667 0,10 -13.624,7.875 -12.981,40.933 0,49 0,3.333 0,6.667 0,10 -16.667,0 -33.333,0 -50,0 30.771,-8.656 32.979,-60.332 0,-68 14.669,-2.331 33.665,-0.335 50,-1 z"
   id="path3202"
   inkscape:connector-curvature="0"
   style="fill:#ffffff;fill-rule:evenodd" />
<path
   clip-rule="evenodd"
   d="m 183,383 c 23.606,-3.271 38.311,11.021 36,37 -4.865,29.063 -55.212,29.291 -60,0 -1.717,-22.051 7.2,-33.467 24,-37 z m -10,30 c 5.124,7.877 10.141,15.859 15,24 8.045,-5.622 10.609,-16.725 17,-24 -5.386,-8.947 -9.643,-19.023 -17,-26 -3.829,9.838 -11.171,16.162 -15,26 z"
   id="path3204"
   inkscape:connector-curvature="0"
   style="fill:#ffffff;fill-rule:evenodd" />
<path
   clip-rule="evenodd"
   d="m 268,383 c 47.086,-7.174 44.522,58.922 7,60 -35.658,1.024 -43.441,-53.901 -7,-60 z m -10,30 c 6.17,7.497 9.055,18.278 17,24 4.62,-8.38 9.605,-16.395 15,-24 -5.238,-9.095 -10.075,-18.592 -17,-26 -4.002,9.664 -11.17,16.163 -15,26 z"
   id="path3206"
   inkscape:connector-curvature="0"
   style="fill:#ffffff;fill-rule:evenodd" />
<path
   clip-rule="evenodd"
   d="m 353,383 c -0.003,10e-4 0.355,-0.903 1,-1 45.165,-6.771 44.809,61.65 4,61 -34.049,-0.543 -40.281,-53.829 -5,-60 z m -10,30 c 5.259,8.408 10.097,17.236 16,25 5.122,-8.878 10.934,-17.066 16,-26 -6.246,-7.754 -9.999,-18.001 -17,-25 -4.289,9.378 -11.192,16.141 -15,26 z"
   id="path3208"
   inkscape:connector-curvature="0"
   style="fill:#ffffff;fill-rule:evenodd" />
<path
   clip-rule="evenodd"
   d="m 419,395 c 0,11.667 0,23.333 0,35 -7.521,-7.649 -7.786,-27.436 0,-35 z"
   id="path3210"
   inkscape:connector-curvature="0"
   style="fill:#ffffff;fill-rule:evenodd" />
<path
   clip-rule="evenodd"
   d="m 188,396 c 5.883,3.45 7.133,11.533 12,16 -3.034,5.966 -7.72,10.28 -10,17 -5.541,-3.793 -6.906,-11.761 -12,-16 3.018,-5.982 7.358,-10.642 10,-17 z"
   id="path3212"
   inkscape:connector-curvature="0"
   style="fill:#ffffff;fill-rule:evenodd" />
<path
   clip-rule="evenodd"
   d="m 273,396 c 4.994,4.006 7.67,10.33 11,16 -2.39,6.61 -6.691,11.309 -10,17 -4.306,-4.694 -6.442,-11.558 -11,-16 3.144,-5.856 7.182,-10.818 10,-17 z"
   id="path3214"
   inkscape:connector-curvature="0"
   style="fill:#ffffff;fill-rule:evenodd" />
<path
   clip-rule="evenodd"
   d="m 358,396 c 5.163,3.837 7.359,10.641 11,16 -2.28,6.72 -6.966,11.034 -10,17 -4.558,-4.442 -6.694,-11.306 -11,-16 2.662,-6.338 7.145,-10.855 10,-17 z"
   id="path3216"
   inkscape:connector-curvature="0"
   style="fill:#ffffff;fill-rule:evenodd" />
<path
   clip-rule="evenodd"
   d="m 121,412 c 7.613,6.406 3.55,22.109 -10,19 -11.794,-4.993 -5.941,-26.062 10,-19 z"
   id="path3218"
   inkscape:connector-curvature="0"
   style="fill:#ffffff;fill-rule:evenodd" />
<path
   clip-rule="evenodd"
   d="m 112,450 c 7.381,-2.093 14.052,2.246 13,11 -2.776,23.108 -35.334,-4.668 -13,-11 z"
   id="path3220"
   inkscape:connector-curvature="0"
   style="fill:#ffffff;fill-rule:evenodd" />
<path
   clip-rule="evenodd"
   d="m 237,451 c -0.551,7.115 -1.821,13.512 -4,19 -28.667,0 -57.333,0 -86,0 -2.144,-4.523 -0.472,-12.861 -1,-19 30.333,0 60.667,0 91,0 z"
   id="path3222"
   inkscape:connector-curvature="0"
   style="fill:#ffffff;fill-rule:evenodd" />
<path
   clip-rule="evenodd"
   d="m 243,451 c 12,0 24,0 36,0 -5.127,31.206 -12.229,60.438 -17,92 -8.924,-28.076 -12.946,-61.054 -19,-92 z"
   id="path3224"
   inkscape:connector-curvature="0"
   style="fill:#ffffff;fill-rule:evenodd" />
<path
   clip-rule="evenodd"
   d="m 285,451 c 12,0 24,0 36,0 -6.15,30.516 -11.604,61.729 -18,92 -7.325,-28.686 -13.779,-63.541 -18,-92 z"
   id="path3226"
   inkscape:connector-curvature="0"
   style="fill:#ffffff;fill-rule:evenodd" />
<path
   clip-rule="evenodd"
   d="m 326,451 c 12,0 24,0 36,0 -3.61,28.737 -11.934,61.39 -17,92 -8.161,-28.839 -12.257,-61.743 -19,-92 z"
   id="path3228"
   inkscape:connector-curvature="0"
   style="fill:#ffffff;fill-rule:evenodd" />
<path
   clip-rule="evenodd"
   d="m 368,451 c 12,0 24,0 36,0 -6.272,30.728 -9.631,64.369 -19,92 -4.758,-31.575 -12.108,-60.559 -17,-92 z"
   id="path3230"
   inkscape:connector-curvature="0"
   style="fill:#ffffff;fill-rule:evenodd" />
<path
   clip-rule="evenodd"
   d="m 419,451 c 0,15.333 0,30.667 0,46 -3.8,-14.533 -6.509,-30.157 -9,-46 3,0 6,0 9,0 z"
   id="path3232"
   inkscape:connector-curvature="0"
   style="fill:#ffffff;fill-rule:evenodd" />
<path
   clip-rule="evenodd"
   d="m 257,550 c -11.333,0 -22.667,0 -34,0 4.5,-29.834 11.724,-56.943 16,-87 8.503,26.497 11.878,58.122 18,87 z"
   id="path3234"
   inkscape:connector-curvature="0"
   style="fill:#ffffff;fill-rule:evenodd" />
<path
   clip-rule="evenodd"
   d="m 299,550 c -11.333,0 -22.667,0 -34,0 5.817,-29.183 8.943,-61.057 18,-87 4.183,30.15 11.133,57.534 16,87 z"
   id="path3236"
   inkscape:connector-curvature="0"
   style="fill:#ffffff;fill-rule:evenodd" />
<path
   clip-rule="evenodd"
   d="m 341,550 c -11.667,0 -23.333,0 -35,0 5.865,-28.801 11.537,-57.796 17,-87 7.477,27.523 11.461,58.539 18,87 z"
   id="path3238"
   inkscape:connector-curvature="0"
   style="fill:#ffffff;fill-rule:evenodd" />
<path
   clip-rule="evenodd"
   d="m 382,550 c -11.333,0 -22.667,0 -34,0 5.655,-29.011 10.884,-58.449 17,-87 6.895,27.772 12.068,57.265 17,87 z"
   id="path3240"
   inkscape:connector-curvature="0"
   style="fill:#ffffff;fill-rule:evenodd" />
<path
   clip-rule="evenodd"
   d="m 419,520 c 0,10 0,20 0,30 -9.667,0 -19.333,0 -29,0 5.852,-29.148 9.557,-60.443 18,-87 2.804,19.862 6.671,38.662 11,57 z"
   id="path3242"
   inkscape:connector-curvature="0"
   style="fill:#ffffff;fill-rule:evenodd" />
<path
   clip-rule="evenodd"
   d="m 233,474 c -0.669,5.997 -2.616,10.718 -3,17 -28,0 -56,0 -84,0 0,-5.667 0,-11.333 0,-17 29,0 58,0 87,0 z"
   id="path3244"
   inkscape:connector-curvature="0"
   style="fill:#ffffff;fill-rule:evenodd" />
<path
   clip-rule="evenodd"
   d="m 0,496 c 12.333,0 24.667,0 37,0 -2.632,17.397 -8.175,37.117 -8,54 -9.667,0 -19.333,0 -29,0 0,-18 0,-36 0,-54 z"
   id="path3246"
   inkscape:connector-curvature="0"
   style="fill:#ffffff;fill-rule:evenodd" />
<path
   clip-rule="evenodd"
   d="m 47,550 c -5,0 -10,0 -15,0 3.182,-17.818 6.32,-35.68 9,-54 5,0 10,0 15,0 -3.079,17.922 -5.879,36.121 -9,54 z"
   id="path3248"
   inkscape:connector-curvature="0"
   style="fill:#ffffff;fill-rule:evenodd" />
<path
   clip-rule="evenodd"
   d="m 65,550 c -4.667,0 -9.333,0 -14,0 3.454,-17.546 6.879,-35.12 9,-54 4.667,0 9.333,0 14,0 -2.309,18.691 -5.639,36.361 -9,54 z"
   id="path3250"
   inkscape:connector-curvature="0"
   style="fill:#ffffff;fill-rule:evenodd" />
<path
   clip-rule="evenodd"
   d="m 85,550 c -5,0 -10,0 -15,0 2.999,-18.002 6.001,-35.998 9,-54 5,0 10,0 15,0 -3.588,17.412 -6.803,35.197 -9,54 z"
   id="path3252"
   inkscape:connector-curvature="0"
   style="fill:#ffffff;fill-rule:evenodd" />
<path
   clip-rule="evenodd"
   d="m 103,550 c -4.667,0 -9.333,0 -14,0 3.085,-17.915 6.689,-35.311 9,-54 4.667,0 9.333,0 14,0 -2.547,18.453 -6.168,35.831 -9,54 z"
   id="path3254"
   inkscape:connector-curvature="0"
   style="fill:#ffffff;fill-rule:evenodd" />
<path
   clip-rule="evenodd"
   d="m 122,550 c -4.667,0 -9.333,0 -14,0 2.197,-18.803 5.412,-36.588 9,-54 4.667,0 9.333,0 14,0 -2.522,18.479 -5.521,36.479 -9,54 z"
   id="path3256"
   inkscape:connector-curvature="0"
   style="fill:#ffffff;fill-rule:evenodd" />
<path
   clip-rule="evenodd"
   d="m 141,550 c -4.667,0 -9.333,0 -14,0 2.76,-18.24 5.762,-36.238 9,-54 4.667,0 9.333,0 14,0 -3.238,17.762 -6.584,35.416 -9,54 z"
   id="path3258"
   inkscape:connector-curvature="0"
   style="fill:#ffffff;fill-rule:evenodd" />
<path
   clip-rule="evenodd"
   d="m 160,550 c -5,0 -10,0 -15,0 3.479,-17.521 6.478,-35.521 9,-54 5,0 10,0 15,0 -3.063,17.937 -6.359,35.641 -9,54 z"
   id="path3260"
   inkscape:connector-curvature="0"
   style="fill:#ffffff;fill-rule:evenodd" />
<path
   clip-rule="evenodd"
   d="m 178,550 c -4.333,0 -8.667,0 -13,0 1.661,-19.006 6.65,-34.683 8,-54 4.667,0 9.333,0 14,0 -2.203,18.797 -5.605,36.396 -9,54 z"
   id="path3262"
   inkscape:connector-curvature="0"
   style="fill:#ffffff;fill-rule:evenodd" />
<path
   clip-rule="evenodd"
   d="m 198,550 c -5,0 -10,0 -15,0 2.938,-18.062 5.934,-36.065 9,-54 5,0 10,0 15,0 -3.378,17.622 -6.596,35.403 -9,54 z"
   id="path3264"
   inkscape:connector-curvature="0"
   style="fill:#ffffff;fill-rule:evenodd" />
<path
   clip-rule="evenodd"
   d="m 218,550 c -5.333,0 -10.667,0 -16,0 3.238,-17.762 6.24,-35.76 9,-54 5.667,0 11.333,0 17,0 -2.978,18.356 -6.608,36.059 -10,54 z"
   id="path3266"
   inkscape:connector-curvature="0"
   style="fill:#ffffff;fill-rule:evenodd" />
<g
   id="g3268"
   transform="translate(89,140.71)"
   sodipodi:insensitive="true">
	<path
   clip-rule="evenodd"
   d="m 17,-140.71 c 1.333,0 2.667,0 4,0 7.446,22.158 52.072,24.003 59,0 1.667,0 3.333,0 5,0 -6.113,29.018 -61.654,28.154 -68,0 z"
   id="path3270"
   inkscape:connector-curvature="0"
   style="fill-rule:evenodd" />
	<path
   clip-rule="evenodd"
   d="m 117,19.29 c -11.188,1.073 -16.682,-3.274 -17,-11 -1.078,-26.193 41.716,-5.201 17,11 z m -5,-4 c 9.649,0.437 10.033,-17.892 -1,-15 -9.526,2.496 -6.569,14.657 1,15 z"
   id="path3272"
   inkscape:connector-curvature="0"
   style="fill-rule:evenodd" />
	<path
   clip-rule="evenodd"
   d="m 152,-1.71 c 6.745,9.713 1.262,24.327 -14,21 -15.934,-7.322 -1.386,-33.657 14,-21 z m -1,9 c -0.122,-9.346 -17.842,-12.656 -16,3 4.491,8.709 16.101,4.65 16,-3 z"
   id="path3274"
   inkscape:connector-curvature="0"
   style="fill-rule:evenodd" />
	<path
   clip-rule="evenodd"
   d="m 182,-1.71 c 5.468,6.079 2.999,18.792 -4,21 -27.981,5.027 -15.554,-36.371 4,-21 z m -9,17 c 9.856,0.38 9.482,-16.374 0,-15 -11.505,1.668 -8.082,14.689 0,15 z"
   id="path3276"
   inkscape:connector-curvature="0"
   style="fill-rule:evenodd" />
	<path
   clip-rule="evenodd"
   d="m 192,2.29 c 5.486,-10.895 22.518,-7.491 24,3 2.444,17.296 -27.994,21.102 -24,-3 z m 20,4 c -0.97,-8.985 -18.815,-10.919 -16,5 5.794,7.667 16.852,2.889 16,-5 z"
   id="path3278"
   inkscape:connector-curvature="0"
   style="fill-rule:evenodd" />
	<path
   clip-rule="evenodd"
   d="m 231,-3.71 c 3.609,-2.892 9.187,0.775 12,2 15.355,17.666 -20.767,31.639 -21,9 0.419,-6.248 3.592,-9.742 9,-11 z m 3,19 c 9.815,0.261 9.701,-17.779 -1,-15 -10.195,2.648 -6.979,14.788 1,15 z"
   id="path3280"
   inkscape:connector-curvature="0"
   style="fill-rule:evenodd" />
	<path
   clip-rule="evenodd"
   d="m 269,19.29 c -12.271,2.788 -19.355,-8.277 -16,-17 8.125,-21.125 38.176,7.519 16,17 z m 4,-13 c -0.489,-4.908 -5.613,-8.167 -11,-6 -18.077,7.272 13.006,26.102 11,6 z"
   id="path3282"
   inkscape:connector-curvature="0"
   style="fill-rule:evenodd" />
	<path
   clip-rule="evenodd"
   d="m 304,-1.71 c 5.442,6.053 2.864,18.658 -4,21 -28.038,5.205 -15.602,-36.572 4,-21 z m -9,17 c 8.646,0.07 11.559,-17.442 -1,-15 -12.615,2.453 -4.312,14.957 1,15 z"
   id="path3284"
   inkscape:connector-curvature="0"
   style="fill-rule:evenodd" />
	<path
   clip-rule="evenodd"
   d="m 330,-3.71 c 0,1.333 0,2.667 0,4 -15.31,-7.463 -15.463,21.578 0,14 0,1.667 0,3.333 0,5 -23.407,5.108 -19.863,-30.344 0,-23 z"
   id="path3286"
   inkscape:connector-curvature="0"
   style="fill-rule:evenodd" />
	<path
   clip-rule="evenodd"
   d="m 176,59.29 c 11.377,-3.211 17.424,4.804 18,11 1.675,18.006 -27.436,21.262 -28,2 -0.198,-6.751 3.585,-10.826 10,-13 z m 5,22 c 5.309,-0.418 8.793,-4.416 8,-13 -12.211,-19.588 -28.047,14.578 -8,13 z"
   id="path3288"
   inkscape:connector-curvature="0"
   style="fill-rule:evenodd" />
	<path
   clip-rule="evenodd"
   d="m 51,74.29 c 5.241,6.426 8.636,14.697 14,21 -3.319,8.681 -9.678,14.322 -13,23 -5.995,-6.339 -9.58,-15.087 -15,-22 4.905,-7.095 9.331,-14.669 14,-22 z m -9,22 c 3.052,3.948 5.86,8.14 8,13 5.697,-1.636 5.315,-9.352 10,-12 -2.838,-5.162 -4.645,-11.355 -10,-14 -2.104,4.896 -5.304,8.696 -8,13 z"
   id="path3290"
   inkscape:connector-curvature="0"
   style="fill-rule:evenodd" />
	<path
   clip-rule="evenodd"
   d="m 105,92.29 c 4.24,17.093 11.191,31.476 16,48 -11.333,0 -22.667,0 -34,0 6.231,-15.769 9.956,-34.044 18,-48 z m -11,44 c 7,0 14,0 21,0 -3.795,-10.205 -6.708,-21.292 -11,-31 -3.137,10.53 -7.919,19.414 -10,31 z"
   id="path3292"
   inkscape:connector-curvature="0"
   style="fill-rule:evenodd" />
	<path
   clip-rule="evenodd"
   d="m 249,157.29 c -3.146,-6.521 -6.421,-12.912 -12,-17 -4.165,0.502 -5.835,3.498 -10,4 2.021,6.646 7.082,10.252 10,16 -8.645,3.629 -16.344,-2.312 -22,-5 -16.208,-20.17 -11.61,-70.017 27,-62 24.494,3.167 28.549,53.991 7,64 z m -8,-60 c -38.612,-8.44 -39.685,55.202 -12,60 -1.774,-5.893 -6.267,-9.067 -10,-13 6.451,-2.882 11.991,-6.676 19,-9 6.174,3.826 9.116,10.884 14,16 11.557,-15.352 8.802,-50.124 -11,-54 z"
   id="path3294"
   inkscape:connector-curvature="0"
   style="fill-rule:evenodd" />
	<path
   clip-rule="evenodd"
   d="m 330,95.29 c 0,2.333 0,4.667 0,7 -15.395,8.802 -15.395,43.197 0,52 0,2 0,4 0,6 -21.763,-8.991 -20.239,-55.587 0,-65 z"
   id="path3296"
   inkscape:connector-curvature="0"
   style="fill-rule:evenodd" />
	<path
   clip-rule="evenodd"
   d="m 330,197.29 c 0,1.333 0,2.667 0,4 -12.136,0.293 -11.261,20.404 0,21 0,1.333 0,2.667 0,4 -18.133,0.947 -18.228,-30.033 0,-29 z"
   id="path3298"
   inkscape:connector-curvature="0"
   style="fill-rule:evenodd" />
	<path
   clip-rule="evenodd"
   d="m 23,227.29 c 20.555,-3.661 22.614,26.104 6,29 -17.386,3.03 -26.864,-25.284 -6,-29 z m 13,12 c -0.813,-5.378 -4.38,-10.516 -14,-7 -24.275,8.871 18.042,33.719 14,7 z"
   id="path3300"
   inkscape:connector-curvature="0"
   style="fill-rule:evenodd" />
	<path
   clip-rule="evenodd"
   d="m 99,246.29 c 7.357,6.977 11.614,17.053 17,26 -6.391,7.275 -8.955,18.378 -17,24 -4.859,-8.141 -9.876,-16.123 -15,-24 3.829,-9.838 11.171,-16.162 15,-26 z m -10,26 c 5.094,4.239 6.459,12.207 12,16 2.28,-6.72 6.966,-11.034 10,-17 -4.867,-4.467 -6.117,-12.55 -12,-16 -2.642,6.358 -6.982,11.018 -10,17 z"
   id="path3302"
   inkscape:connector-curvature="0"
   style="fill-rule:evenodd" />
	<path
   clip-rule="evenodd"
   d="m 184,246.29 c 6.925,7.408 11.762,16.905 17,26 -5.395,7.605 -10.38,15.62 -15,24 -7.945,-5.722 -10.83,-16.503 -17,-24 3.83,-9.837 10.998,-16.336 15,-26 z m -10,26 c 4.558,4.442 6.694,11.306 11,16 3.309,-5.691 7.61,-10.39 10,-17 -3.33,-5.67 -6.006,-11.994 -11,-16 -2.818,6.182 -6.856,11.144 -10,17 z"
   id="path3304"
   inkscape:connector-curvature="0"
   style="fill-rule:evenodd" />
	<path
   clip-rule="evenodd"
   d="m 269,246.29 c 7.001,6.999 10.754,17.246 17,25 -5.066,8.934 -10.878,17.122 -16,26 -5.903,-7.764 -10.741,-16.592 -16,-25 3.808,-9.859 10.711,-16.622 15,-26 z m -10,26 c 4.306,4.694 6.442,11.558 11,16 3.034,-5.966 7.72,-10.28 10,-17 -3.641,-5.359 -5.837,-12.163 -11,-16 -2.855,6.145 -7.338,10.662 -10,17 z"
   id="path3306"
   inkscape:connector-curvature="0"
   style="fill-rule:evenodd" />
	<path
   clip-rule="evenodd"
   d="m 330,247.29 c 0,2.333 0,4.667 0,7 -7.786,7.564 -7.521,27.351 0,35 0,2.333 0,4.667 0,7 -12.981,-8.067 -13.624,-41.125 0,-49 z"
   id="path3308"
   inkscape:connector-curvature="0"
   style="fill-rule:evenodd" />
	<path
   clip-rule="evenodd"
   d="m 21,266.29 c 10.522,-3.133 17.244,2.908 19,8 7.625,22.104 -32.722,30.759 -29,3 0.749,-5.585 3.858,-8.883 10,-11 z m 1,24 c 13.55,3.109 17.613,-12.594 10,-19 -15.941,-7.062 -21.794,14.007 -10,19 z"
   id="path3310"
   inkscape:connector-curvature="0"
   style="fill-rule:evenodd" />
	<path
   clip-rule="evenodd"
   d="m 20,305.29 c 3.972,-2.599 11.784,-0.481 15,1 7.093,5.748 7.093,19.252 0,25 -13.905,6.982 -28.799,-4.131 -23,-20 2.904,-1.763 3.952,-5.382 8,-6 z m 16,15 c 1.052,-8.754 -5.619,-13.093 -13,-11 -22.334,6.332 10.224,34.108 13,11 z"
   id="path3312"
   inkscape:connector-curvature="0"
   style="fill-rule:evenodd" />
	<path
   clip-rule="evenodd"
   d="m 330,24.29 c 0,6.333 0,12.667 0,19 -3.266,-3.734 -3.555,-10.445 -6,-15 -4.355,0.645 -11.305,-1.304 -14,1 2.99,5.343 4.552,12.114 7,18 4.333,0 8.667,0 13,0 0,1.333 0,2.667 0,4 -59.333,0 -118.667,0 -178,0 8.516,25.151 16.826,50.507 27,74 -1.739,-70.407 83.944,-53.388 151,-55 0,1.333 0,2.667 0,4 -7,0 -14,0 -21,0 0,37 0,74 0,111 7,0 14,0 21,0 0,1.667 0,3.333 0,5 -25.883,0.45 -56.145,-3.479 -70,9 -5.678,-4.655 -10.774,-9.893 -15,-16 -21.959,4.189 -39.146,-4.778 -51,-14 4.478,13.522 10.179,25.821 14,40 23,0 46,0 69,0 3.001,-6.162 4.935,-10.746 11,-12 23.356,-4.829 27.294,33.492 -1,29 -5.81,-1.857 -7.048,-8.285 -11,-12 -21.668,0.666 -45.999,-1.332 -66,1 3.153,5.18 4.622,12.044 7,18 37.667,0 75.333,0 113,0 0,1.333 0,2.667 0,4 -16.335,0.665 -35.331,-1.331 -50,1 32.979,7.668 30.771,59.344 0,68 16.667,0 33.333,0 50,0 0,1.333 0,2.667 0,4 -3,0 -6,0 -9,0 2.491,15.843 5.2,31.467 9,46 0,7.667 0,15.333 0,23 -4.329,-18.338 -8.196,-37.138 -11,-57 -8.443,26.557 -12.148,57.852 -18,87 -2.667,0 -5.333,0 -8,0 -4.932,-29.735 -10.105,-59.229 -17,-87 -6.116,28.551 -11.345,57.989 -17,87 -2.333,0 -4.667,0 -7,0 -6.539,-28.461 -10.523,-59.477 -18,-87 -5.463,29.204 -11.135,58.199 -17,87 -2.333,0 -4.667,0 -7,0 -4.867,-29.466 -11.817,-56.85 -16,-87 -9.057,25.943 -12.183,57.817 -18,87 -2.667,0 -5.333,0 -8,0 -6.122,-28.878 -9.497,-60.503 -18,-87 -4.276,30.057 -11.5,57.166 -16,87 -1.667,0 -3.333,0 -5,0 3.392,-17.941 7.022,-35.644 10,-54 -5.667,0 -11.333,0 -17,0 -2.76,18.24 -5.762,36.238 -9,54 -1.333,0 -2.667,0 -4,0 2.404,-18.597 5.622,-36.378 9,-54 -5,0 -10,0 -15,0 -3.066,17.935 -6.062,35.938 -9,54 -1.667,0 -3.333,0 -5,0 3.395,-17.604 6.797,-35.203 9,-54 -4.667,0 -9.333,0 -14,0 -1.35,19.317 -6.339,34.994 -8,54 -1.667,0 -3.333,0 -5,0 2.641,-18.359 5.937,-36.063 9,-54 -5,0 -10,0 -15,0 -2.522,18.479 -5.521,36.479 -9,54 -1.333,0 -2.667,0 -4,0 2.416,-18.584 5.762,-36.238 9,-54 -4.667,0 -9.333,0 -14,0 -3.238,17.762 -6.24,35.76 -9,54 -1.667,0 -3.333,0 -5,0 3.479,-17.521 6.478,-35.521 9,-54 -4.667,0 -9.333,0 -14,0 -3.588,17.412 -6.803,35.197 -9,54 -1.667,0 -3.333,0 -5,0 2.832,-18.169 6.453,-35.547 9,-54 -4.667,0 -9.333,0 -14,0 -2.311,18.689 -5.915,36.085 -9,54 -1.333,0 -2.667,0 -4,0 2.197,-18.803 5.412,-36.588 9,-54 -5,0 -10,0 -15,0 -2.999,18.002 -6.001,35.998 -9,54 -1.667,0 -3.333,0 -5,0 3.361,-17.639 6.691,-35.309 9,-54 -4.667,0 -9.333,0 -14,0 -2.121,18.88 -5.546,36.454 -9,54 -1.333,0 -2.667,0 -4,0 3.121,-17.879 5.921,-36.078 9,-54 -5,0 -10,0 -15,0 -2.68,18.32 -5.818,36.182 -9,54 -1,0 -2,0 -3,0 -0.175,-16.883 5.368,-36.603 8,-54 -12.333,0 -24.667,0 -37,0 0,-1.667 0,-3.333 0,-5 29.689,8.236 35.964,-28.675 15,-35 17.474,-3.896 15.656,-32.725 -1,-36 18.723,-1.813 17.077,-32.695 0,-35 22.643,-4.712 15.634,-43.49 -14,-35 0,-1.333 0,-2.667 0,-4 37.667,0 75.333,0 113,0 -0.582,-8.085 1.217,-18.551 -1,-25 -37.333,0 -74.667,0 -112,0 0,-1.333 0,-2.667 0,-4 6,0 12,0 18,0 0,-2.667 0,-5.333 0,-8 -6.675,-0.324 -11.325,-2.676 -18,-3 0,-1.333 0,-2.667 0,-4 7.124,-0.576 14.375,3.332 19,2 -0.255,-5.745 0.749,-12.749 -1,-17 -6.913,-0.087 -11.645,-2.355 -18,-3 0,-1.333 0,-2.667 0,-4 6.68,0.32 11.994,2.006 18,3 0,-5.333 0,-10.667 0,-16 -5.146,-2.187 -12.854,-1.813 -18,-4 0,-1.333 0,-2.667 0,-4 6.913,0.087 11.645,2.355 18,3 2.077,-3.59 0.519,-10.814 1,-16 -5.488,-2.179 -11.884,-3.449 -19,-4 0,-1.667 0,-3.333 0,-5 6.284,0.716 11.569,2.431 18,3 0,-5.333 0,-10.667 0,-16 -6.128,-1.205 -12.681,-1.986 -18,-4 0,-1.333 0,-2.667 0,-4 6.256,1.078 11.406,3.261 19,3 0,-5.333 0,-10.667 0,-16 -5.709,-1.957 -12.196,-3.138 -19,-4 0,-1.333 0,-2.667 0,-4 7.068,-0.068 12.033,1.967 18,3 0,-5.667 0,-11.333 0,-17 -6.68,-0.32 -12.228,-1.772 -18,-3 0,-1.333 0,-2.667 0,-4 7.068,-0.068 12.033,1.967 18,3 2.077,-3.59 0.519,-10.814 1,-16 -5.177,-2.49 -11.663,-3.67 -19,-4 0,-1.667 0,-3.333 0,-5 6.431,0.569 11.716,2.284 18,3 0,-5.333 0,-10.667 0,-16 -5.453,-1.881 -12.758,-1.909 -18,-4 0,-1.333 0,-2.667 0,-4 6.355,0.645 11.087,2.913 18,3 2.077,-3.59 0.519,-10.814 1,-16 -5.122,-2.545 -12.103,-3.23 -19,-4 0,-1.667 0,-3.333 0,-5 5.967,1.033 10.932,3.068 18,3 0,-5 0,-10 0,-15 -5.818,-0.515 -13.791,1.125 -18,-1 0,-1.333 0,-2.667 0,-4 9.333,0 18.667,0 28,0 -5.077,-10.589 -10.83,-20.503 -18,-29 -3.497,4.836 -5.86,10.806 -10,15 0,-2.667 0,-5.333 0,-8 2.478,-2.856 4.567,-6.099 6,-10 -2,0 -4,0 -6,0 0,-1.667 0,-3.333 0,-5 41.973,4.417 108.464,-5.844 149,0 14.355,2.069 23.028,12.439 31,21 6,0 12,0 18,0 0.1,-11.959 2.487,-22.774 7,-31 3.153,-5.747 10.925,-9.832 10,-14 -13,0 -26,0 -39,0 -14.936,10.129 -34.262,16.599 -56,9 -5.579,-1.95 -10.375,-7.658 -17,-9 -14.34,-2.905 -33.445,0 -51,0 -17.34,0 -34.628,0 -52,0 0,-0.667 0,-1.333 0,-2 4.339,-6.328 19.849,-1.484 29,-3 0,-8.667 0,-17.333 0,-26 1.333,0 2.667,0 4,0 0,8.667 0,17.333 0,26 5.614,1.368 21.509,-1.245 28,1 2.232,-7.101 0.407,-18.259 1,-27 1.333,0 2.667,0 4,0 0,8.667 0,17.333 0,26 10.718,0.615 23.931,-1.264 33,1 -5.666,-8.334 -11.999,-16.001 -15,-27 1.667,0 3.333,0 5,0 8.369,47.719 90.673,51.329 103,0 2,0 4,0 6,0 2.942,29.229 51.828,28.937 57,2 4.319,18.276 28.619,27.278 45,16 6.184,-4.257 6.42,-10.438 12,-15 4.932,27.141 50.039,23.713 56,0 1.716,5.06 4.337,9.83 8,13 11.618,10.054 29.273,6.964 40,1 3.145,5.524 -6.691,5.699 -9,9 4.207,0.459 10.745,-1.412 12,2 0,3 0,6 0,9 -0.333,0 -0.667,0 -1,0 -19.449,15.231 -20.796,69.274 1,83 0,2 0,4 0,6 -12.346,-6.321 -15.998,-21.335 -21,-35 -1.673,17.994 -11.262,28.071 -21,38 14,0 28,0 42,0 0,1.333 0,2.667 0,4 -84.668,-0.666 -171.999,1.332 -255,-1 4.453,6.22 10.349,9.909 14,17 2.444,4.746 3.659,9.604 5,16 78.667,0 157.333,0 236,0 z m -237,-139 c 10.671,-0.662 23.994,1.328 33,-1 -10.869,-2.464 -15.307,-11.36 -21,-19 -2.243,8.424 -7.736,13.598 -12,20 z m 56,0 c 10.671,-0.662 23.994,1.328 33,-1 -8.013,-1.654 -11.324,-8.009 -17,-12 -3.812,5.854 -9.852,9.481 -16,13 z m 57,0 c 10.338,-0.662 23.327,1.327 32,-1 -6.551,-2.449 -12.087,-5.913 -15,-12 -5.739,4.261 -10.314,9.685 -17,13 z m 56,0 c 10.671,-0.662 23.994,1.328 33,-1 -8.702,-1.298 -11.058,-8.942 -18,-12 -2.445,6.888 -9.627,9.04 -15,13 z m -105,6 c 11.597,6.403 14.541,21.459 20,34 0.746,-7.997 3.45,-14.751 7,-21 3.327,-5.856 10.258,-10.493 9,-15 -9.514,3.298 -29.611,-1.433 -36,2 z m 85,34 c 5.122,-13.211 9.551,-27.116 20,-35 -8.725,-0.769 -27.654,1.345 -38,-1 7.741,10.258 17.016,18.985 18,36 z m 68,0 c 2.917,-15.083 8.914,-27.086 19,-35 -8.795,-0.672 -30.072,0.767 -38,-1 8.697,9.636 15.385,21.282 19,36 z m -170,60 c 1.01,-29.027 2.981,-67.635 -1,-95 -34.415,9.21 -35.109,87.096 1,95 z m 5,0 c 36.59,-7.157 35.814,-87.605 0,-95 0,31.667 0,63.334 0,95 z m 67,0 c 36.075,-7.836 35.785,-87.073 0,-95 0,31.667 0,63.334 0,95 z m 62,0 c 0,-31.667 0,-63.333 0,-95 -0.667,0 -1.333,0 -2,0 -33.27,9.478 -34.461,88.122 2,95 z m 5,-95 c -1.664,29.349 -1.664,65.651 0,95 35.937,-8.238 35.617,-86.672 0,-95 z m -72,95 c -1.29,-30.978 2.609,-66.892 -2,-94 -33.398,10.413 -32.965,85.696 2,94 z m -266,-39 c 8.032,-6.968 12.406,-17.594 18,-27 -11,0 -22,0 -33,0 4.06,9.94 11.102,16.898 15,27 z m 42,0 c 7.76,-7.24 11.819,-18.181 18,-27 -11,0 -22,0 -33,0 3.618,10.382 11.25,16.751 15,27 z m 23,-27 c -5.865,11.135 -13.216,20.784 -19,32 9.667,0 19.333,0 29,0 1.858,-15.142 9.713,-24.287 19,-32 -9.667,0 -19.333,0 -29,0 z m 47,67 c -1.295,-21.372 2.615,-47.949 -2,-66 -18.46,9.755 -19.819,58.898 2,66 z m 4,0 c 21.582,-7.269 21.294,-58.643 0,-66 0,22 0,44 0,66 z m -112,-35 c 12,0 24,0 36,0 -5.96,-10.04 -10.576,-21.424 -19,-29 -4.888,10.445 -11.71,18.957 -17,29 z m 97,34 c -11.008,-13.928 -12.135,-47.261 -1,-62 1.052,-0.055 0.787,-1.282 -1,-1 -25.763,8.781 -24.698,55.983 2,63 z m 26,-1 c 28.095,-4.535 25.821,-59.18 0,-61 12.46,12.091 11.842,48.729 0,61 z m 17,-6 c -3.562,4.31 -9.926,5.11 -10,10 18.667,0 37.333,0 56,0 -11.935,-11.398 -21.635,-25.032 -22,-48 -5.68,0.653 -13.982,-1.315 -18,1 4.696,13.633 1.318,28.147 -6,37 z m 69,9 c 12.707,2.293 29.637,0.363 44,1 -10.614,-9.386 -18.511,-21.489 -22,-38 -3.249,16.418 -10.075,29.258 -22,37 z m 67,1 c 14.08,-1.253 33.225,2.558 44,-2 -13.773,-5.894 -17.182,-22.152 -23,-36 -1.303,18.364 -11.045,28.289 -21,38 z m -286,-33 c -2.327,8.673 -0.338,21.662 -1,32 31.675,2.325 67.661,0.339 101,1 -4.29,-6.402 -10.329,-9.871 -14,-17 -2.444,-4.746 -3.659,-9.604 -5,-16 -27,0 -54,0 -81,0 z m 15,37 c 1.028,6.261 -1.859,18.49 1,20 4.719,-6.614 10.005,-12.661 14,-20 -4.072,-1.495 -10.576,-0.429 -15,0 z m 21,20 c 6.47,-5.53 11.454,-12.546 15,-21 -4.667,0 -9.333,0 -14,0 -2.174,5.159 -0.449,14.217 -1,21 z m 21,0 c 6.208,-5.208 13.441,-14.447 15,-21 -4.897,0.62 -8.883,0.899 -14,0 -2.174,5.159 -0.449,14.217 -1,21 z m -58,13 c 3.667,0 7.333,0 11,0 0,-11 0,-22 0,-33 -3.667,0 -7.333,0 -11,0 0,11 0,22 0,33 z m 79,-33 c -6.727,11.94 -15.532,21.802 -23,33 8.667,0 17.333,0 26,0 0.993,-16.341 9.127,-25.539 19,-33 -7.333,0 -14.667,0 -22,0 z m 38,1 c -18.893,9.322 -19.597,59.12 2,66 -1.319,-21.348 2.647,-47.98 -2,-66 z m 6,65 c 20.176,-4.23 22.095,-57.95 0,-65 0,21.667 0,43.334 0,65 z m 11,-1 c 27.685,-5.695 26.466,-56.946 0,-63 11.493,14.002 12.272,49.169 0,63 z m -26,-1 c -12.294,-12.298 -11.838,-48.573 0,-61 -28.382,4.134 -25.854,59.494 0,61 z m -86,-43 c -2.988,4.164 -8.404,9.277 -7,12 5.667,0 11.333,0 17,0 -0.66,-8.34 1.324,-19.324 -1,-26 -1.714,4.516 -5.622,9.293 -9,14 z m 13,12 c 6.333,0 12.667,0 19,0 -0.66,-8.34 1.324,-19.324 -1,-26 -5.691,8.975 -12.451,16.882 -18,26 z m 124,3 c 2.115,46.062 -76.122,46.706 -76,2 -11.667,0 -23.333,0 -35,0 0,14.333 0,28.667 0,43 16,0 32,0 48,0 -1.946,7.387 -2.771,15.895 -5,23 -14.333,0 -28.667,0 -43,0 0,6.667 0,13.333 0,20 13,0 26,0 39,0 0,3.333 0,6.667 0,10 15.333,0 30.667,0 46,0 7.327,-17.006 12.354,-36.313 20,-53 10,0 20,0 30,0 -5.002,-15.331 -10.694,-29.973 -16,-45 -2.667,0 -5.333,0 -8,0 z m 87,205 c 4,0 8,0 12,0 -21.745,-66.925 -48.879,-137.119 -73,-205 -4.333,0 -8.667,0 -13,0 23.959,69.04 48.877,137.124 74,205 z m 18,0 c 4.667,0 9.333,0 14,0 -23.146,-69.521 -49.497,-135.836 -73,-205 -5,0 -10,0 -15,0 24.486,68.513 48.714,137.287 74,205 z m -47,-186 c 4,0 8,0 12,0 -1.252,-7.082 -4.825,-11.842 -6,-19 -4.333,0 -8.667,0 -13,0 1.615,7.052 3.938,13.396 7,19 z m 17,0 c 4.667,0 9.333,0 14,0 -1.336,-6.997 -4.909,-11.757 -6,-19 -4.667,0 -9.333,0 -14,0 1.237,7.096 4.763,11.904 6,19 z m 20,0 c 4,0 8,0 12,0 -0.909,-7.424 -4.648,-12.019 -6,-19 -4.333,0 -8.667,0 -13,0 1.427,7.24 3.749,13.584 7,19 z m 18,0 c 4.333,0 8.667,0 13,0 -1.237,-7.096 -4.763,-11.904 -6,-19 -4.667,0 -9.333,0 -14,0 1.993,6.674 3.889,13.444 7,19 z m 19,0 c 4,0 8,0 12,0 -0.909,-7.424 -4.648,-12.019 -6,-19 -4.333,0 -8.667,0 -13,0 1.615,7.052 3.938,13.396 7,19 z m 18,0 c 4.333,0 8.667,0 13,0 -1.091,-7.243 -4.664,-12.003 -6,-19 -4.667,0 -9.333,0 -14,0 2.137,6.53 4.282,13.051 7,19 z m 19,0 c 4,0 8,0 12,0 -0.668,-7.666 -4.211,-12.456 -6,-19 -4.333,0 -8.667,0 -13,0 1.993,6.674 3.889,13.444 7,19 z m 18,0 c 4.333,0 8.667,0 13,0 -1.141,-7.193 -4.079,-12.587 -6,-19 -4.667,0 -9.333,0 -14,0 2.265,6.402 4.41,12.923 7,19 z m 19,0 c 4,0 8,0 12,0 -0.668,-7.666 -4.211,-12.456 -6,-19 -4.333,0 -8.667,0 -13,0 1.898,6.768 4.339,12.995 7,19 z m -364,-17 c -2.333,46.667 -0.333,97.667 -1,146 6.138,-0.528 14.477,1.144 19,-1 0.666,-33.667 -1.333,-70 1,-102 7.667,0 15.333,0 23,0 2.289,-12.044 0.366,-28.301 1,-42 -12.375,-2.291 -28.969,-0.365 -43,-1 z m 296,44 c -69.764,3.407 -60.43,120.578 16,105 5.217,4.783 7.874,12.126 15,15 2.785,-3.215 8.755,-3.245 11,-7 -5.54,-3.127 -9.161,-8.172 -12,-14 44.509,-26.766 26.695,-101.769 -30,-99 z m 47,16 c 14.616,18.946 16.197,51.128 3,71 -4.239,6.385 -10.387,8.679 -14,15 4.063,11.604 22.416,8.917 38,9 -0.662,-36.672 1.326,-75.993 -1,-111 -14.667,0 -29.333,0 -44,0 6.196,6.462 12.341,8.664 18,16 z m -321,-13 c 0,33 0,66 0,99 7,0 14,0 21,0 0.664,-13.336 -1.33,-29.329 1,-41 12.667,0 25.333,0 38,0 0,-5 0,-10 0,-15 -12.67,-0.664 -27.996,1.329 -39,-1 0,-9 0,-18 0,-27 14.333,0 28.667,0 43,0 2.854,-3.479 2.756,-9.911 4,-15 -22.667,0 -45.333,0 -68,0 z m 133,0 c -12.768,32.232 -23.745,66.255 -36,99 7,0 14,0 21,0 2.137,-6.863 4.05,-13.95 7,-20 12.875,1.896 35.116,1.311 45,0 1.411,7.255 5.106,12.227 6,20 7,0 14,0 21,0 -11.086,-33.58 -23.468,-65.866 -35,-99 -9.667,0 -19.333,0 -29,0 z m -69,53 c -0.619,2.714 1.27,7.937 -1,9 -12.667,0 -25.333,0 -38,0 0,12.333 0,24.667 0,37 22.667,0 45.333,0 68,0 4.295,-15.403 12.458,-32.167 15,-46 -14.667,0 -29.333,0 -44,0 z m 64,30 c -1.79,5.211 -4.053,9.947 -5,16 16.333,0 32.667,0 49,0 -1.813,-5.521 -2.981,-11.686 -6,-16 -12.667,0 -25.333,0 -38,0 z m -56,21 c -1.742,5.762 -1.558,18.21 0,24 45,0 90,0 135,0 -1.914,-8.753 -5.879,-15.454 -8,-24 -42.333,0 -84.667,0 -127,0 z m 264,41 c 12.271,-0.583 12.968,-23.806 -3,-20 -13.509,3.22 -7.645,20.506 3,20 z m -358,23 c 10.398,5.218 10.61,28.841 0,34 10.12,7.753 10.12,29.247 0,37 10.95,5.229 9.508,27.213 1,34 32.499,10.669 45.176,-26.404 21,-35 6.103,-2.23 9.726,-6.94 13,-12 2.11,-14.443 -5.735,-18.932 -13,-24 17.898,-2.253 15.64,-32.103 0,-35 24.577,-8.387 10.804,-45.388 -21,-35 9.568,8.069 8.42,28.736 -1,36 z m 31,-2 c 10.185,8.27 11.551,29.141 0,37 10.845,5.739 11.677,28.551 0,34 3.494,5.995 9.115,10.003 9,19 -0.099,7.795 -6.846,13.493 -6,17 8.667,0 17.333,0 26,0 0,-47 0,-94 0,-141 -9.333,0 -18.667,0 -28,0 8.794,7.135 11.307,28.675 -1,34 z m 34,107 c 17.667,0 35.333,0 53,0 -0.664,-46.67 1.329,-95.996 -1,-141 -17,0 -34,0 -51,0 -2.333,45 -0.333,94.333 -1,141 z m 58,-141 c -2.323,6.011 -0.341,16.325 -1,24 39,0 78,0 117,0 -1.354,-9.312 -5.307,-16.026 -8,-24 -36,0 -72,0 -108,0 z m -1,97 c 10.667,0 21.333,0 32,0 -13.791,-7.938 -26.41,-19.948 -24,-40 1.805,-15.015 13.186,-22.037 24,-29 -10.667,0 -21.333,0 -32,0 0,23 0,46 0,69 z m 53,0 c 21.333,0 42.667,0 64,0 -14.304,-7.229 -26.282,-21.643 -24,-40 1.806,-14.529 13.587,-23.019 24,-29 -21.001,0.665 -44.665,-1.332 -64,1 33.891,7.836 30.25,60.618 0,68 z m 85,0 c 21.333,0 42.667,0 64,0 -4.399,-4.601 -11.389,-6.611 -16,-11 -16.558,-18.815 -4.876,-53.051 16,-58 -21.001,0.665 -44.665,-1.332 -64,1 33.761,8.365 30.116,60.117 0,68 z m -125,-27 c 4.788,29.291 55.135,29.063 60,0 2.311,-25.979 -12.394,-40.271 -36,-37 -16.8,3.533 -25.717,14.949 -24,37 z m 116,23 c 37.522,-1.078 40.086,-67.174 -7,-60 -36.441,6.099 -28.658,61.024 7,60 z m 83,0 c 40.809,0.65 41.165,-67.771 -4,-61 -0.645,0.097 -1.003,1.001 -1,1 -35.281,6.171 -29.049,59.457 5,60 z m -212,8 c 0.528,6.139 -1.144,14.477 1,19 28.667,0 57.333,0 86,0 2.179,-5.488 3.449,-11.885 4,-19 -30.333,0 -60.667,0 -91,0 z m 116,92 c 4.771,-31.562 11.873,-60.794 17,-92 -12,0 -24,0 -36,0 6.054,30.946 10.076,63.924 19,92 z m 41,0 c 6.396,-30.271 11.85,-61.484 18,-92 -12,0 -24,0 -36,0 4.221,28.459 10.675,63.314 18,92 z m 42,0 c 5.066,-30.61 13.39,-63.263 17,-92 -12,0 -24,0 -36,0 6.743,30.257 10.839,63.161 19,92 z m 40,0 c 9.369,-27.631 12.728,-61.272 19,-92 -12,0 -24,0 -36,0 4.892,31.441 12.242,60.425 17,92 z m -239,-69 c 0,5.667 0,11.333 0,17 28,0 56,0 84,0 0.384,-6.282 2.331,-11.003 3,-17 -29,0 -58,0 -87,0 z"
   id="path3314"
   inkscape:connector-curvature="0"
   style="fill-rule:evenodd" />
</g>
<rect
   style="fill:none;stroke:#000000;stroke-width:3.83385825;stroke-linejoin:round;stroke-miterlimit:4;stroke-opacity:1;stroke-dasharray:none"
   id="rect3324"
   width="419"
   height="550"
   x="0"
   y="0"
   transform="translate(0,-1e-5)"
   sodipodi:insensitive="true" /></svg>