<svg xmlns="http://www.w3.org/2000/svg" width="481.799" height="78.856"><path d="M97.982 50.881l-22.231-22.229c-.302-.304-.697-.453-1.09-.453-.396 0-.791.149-1.091.453l-.027.025c-.29.29-.453.683-.453 1.091v6.152c0 .409.163.801.453 1.091l14.96 14.961-14.96 14.963c-.29.289-.453.683-.453 1.088v6.156c0 .405.163.8.453 1.088l.027.027c.287.289.682.453 1.091.453.409 0 .8-.164 1.091-.453l22.232-22.23c.601-.601.601-1.58-.002-2.183"/><path d="M41.595 50.881l22.231-22.229c.299-.304.695-.453 1.09-.453.394 0 .791.149 1.093.453l.026.025c.289.29.452.683.452 1.091v6.152c0 .409-.163.801-.452 1.091l-14.961 14.961 14.961 14.963c.289.289.452.683.452 1.088v6.156c0 .405-.163.8-.452 1.088l-.026.027c-.29.289-.683.453-1.093.453-.409 0-.8-.164-1.092-.453l-22.229-22.23c-.603-.601-.603-1.58 0-2.183"/><path d="M24.301 33.602c4.8 0 8.901 2.4 12.401 6.201l4.8-3.601c-4.5-5.1-10.5-8-17.201-8-14.201 0-24.301 10.201-24.301 24.301 0 14.102 10.1 24.302 24.301 24.302 6.601 0 12.501-2.601 17.001-8.001l-4.6-3.8c-3.1 3.8-7.4 6.4-12.401 6.4-11.3 0-18.301-8.501-18.301-18.901s7.001-18.901 18.301-18.901z"/><path d="M181.699 28.202c-13.501 0-23.101 10.4-23.101 24.201 0 14.301 9.3 24.402 23.401 24.402 8.201 0 15.301-2.9 20.001-9.901l-4.4-3.699c-3 5-9.401 8.2-15.501 8.2-14.001 0-17.501-12.401-17.501-17.401h38.802v-4.2c0-10.702-7.5-21.602-21.701-21.602zm-17.101 20.401c0-2.4 3.7-15.001 16.801-15.001 8.9 0 16.001 6.8 16.001 15.001h-32.802z"/><path d="M231.498 41.003c0-4.801 5.501-7.401 9.801-7.401 5.399 0 8.6 2.3 10.9 6.501l5.4-3.2c-3-5.901-8.801-8.701-16.301-8.701-7.602 0-15.801 4.3-15.801 13.301 0 17.601 27.401 8.7 27.401 21.4 0 5.301-5.4 8.501-10.6 8.501-5.401 0-10.901-2.7-13.401-7.601l-5.3 3.6c3.6 6.4 10.7 9.401 18.601 9.401 8.8 0 16.701-4.8 16.701-14.301 0-18.7-27.401-9-27.401-21.5z"/><path d="M288.099 33.602c4.8 0 8.9 2.4 12.4 6.201l4.801-3.601c-4.501-5.1-10.501-8-17.201-8-14.201 0-24.302 10.201-24.302 24.301 0 14.102 10.101 24.302 24.302 24.302 6.6 0 12.5-2.601 17.001-8.001l-4.601-3.8c-3.101 3.8-7.4 6.4-12.4 6.4-11.301 0-18.302-8.501-18.302-18.901s7.001-18.901 18.302-18.901z"/><path d="M379.798 28.201c-14.201 0-24.302 10.201-24.302 24.302s10.101 24.301 24.302 24.301c14.2 0 24.301-10.2 24.301-24.301s-10.101-24.302-24.301-24.302zm0 43.203c-11.301 0-18.302-8.501-18.302-18.901 0-10.401 7.001-18.901 18.302-18.901s18.301 8.5 18.301 18.901c0 10.4-7 18.901-18.301 18.901z"/><path d="M434.196 28.201c-14.201 0-24.302 10.201-24.302 24.302s10.101 24.301 24.302 24.301c14.2 0 24.301-10.2 24.301-24.301s-10.101-24.302-24.301-24.302zm0 43.203c-11.301 0-18.302-8.501-18.302-18.901 0-10.401 7.001-18.901 18.302-18.901s18.301 8.5 18.301 18.901c0 10.4-7 18.901-18.301 18.901z"/><path d="M349.136 66.909h-.038v-18.806c0-10.101-3.2-19.901-17.601-19.901-7.501 0-13.401 4.2-15.801 9.3h-.2v-37.502h-6v75.604h6v-23.101c0-12.701 7.101-18.901 16.001-18.901 9.5 0 11.601 7.3 11.601 14.801l.003 18.701.007.01c.015.688.108 3.026.711 4.79.508 1.48 1.253 3.105 2.53 4.516 3.937 4.346 11.652 1.719 13.638.908-1.291-1.238-2.427-2.627-3.393-4.135-7.82 3.995-7.458-6.284-7.458-6.284z"/><path d="M151.501 68.053v-68.053h-6.001v37.502h-.2c-3.7-6.4-11.601-9.3-18.501-9.3-14.201 0-24.301 10.2-24.301 24.301 0 14.102 10.1 24.302 24.301 24.302 6.9 0 14.801-2.9 18.501-9.301h.153c.04.957.182 2.888.699 4.399.507 1.48 1.253 3.105 2.53 4.516 3.936 4.346 11.652 1.719 13.638.908-1.291-1.238-2.427-2.627-3.393-4.135-6.17 3.154-7.246-2.58-7.426-5.139zm-24.702 3.351c-11.3 0-18.301-8.501-18.301-18.901 0-10.401 7.001-18.901 18.301-18.901 10.901 0 19.301 8.5 19.301 18.901 0 10.4-8.4 18.901-19.301 18.901z"/><path d="M478.406 73.192c-6.525 3.335-7.399-3.269-7.511-5.546v-67.646h-6v66.979l.022.032c.008.519.075 3.027.713 4.893.508 1.48 1.253 3.105 2.53 4.516 3.937 4.346 11.652 1.719 13.638.908-1.29-1.239-2.426-2.628-3.392-4.136z"/></svg>