<?xml version="1.0" encoding="UTF-8" standalone="no"?>
<!-- Created with Inkscape (http://www.inkscape.org/) -->

<svg
   xmlns:dc="http://purl.org/dc/elements/1.1/"
   xmlns:cc="http://creativecommons.org/ns#"
   xmlns:rdf="http://www.w3.org/1999/02/22-rdf-syntax-ns#"
   xmlns:svg="http://www.w3.org/2000/svg"
   xmlns="http://www.w3.org/2000/svg"
   xmlns:sodipodi="http://sodipodi.sourceforge.net/DTD/sodipodi-0.dtd"
   xmlns:inkscape="http://www.inkscape.org/namespaces/inkscape"
   width="1052.3622"
   height="744.09448"
   id="svg2"
   version="1.1"
   inkscape:version="0.48.4 r9939"
   sodipodi:docname="balanceActivity2.svg">
  <defs
     id="defs4" />
  <sodipodi:namedview
     id="base"
     pagecolor="#ffffff"
     bordercolor="#666666"
     borderopacity="1.0"
     inkscape:pageopacity="0.0"
     inkscape:pageshadow="2"
     inkscape:zoom="0.49497475"
     inkscape:cx="528.54319"
     inkscape:cy="326.06368"
     inkscape:document-units="px"
     inkscape:current-layer="layer1"
     showgrid="false"
     inkscape:window-width="1280"
     inkscape:window-height="776"
     inkscape:window-x="0"
     inkscape:window-y="24"
     inkscape:window-maximized="1" />
  <metadata
     id="metadata7">
    <rdf:RDF>
      <cc:Work
         rdf:about="">
        <dc:format>image/svg+xml</dc:format>
        <dc:type
           rdf:resource="http://purl.org/dc/dcmitype/StillImage" />
        <dc:title />
      </cc:Work>
    </rdf:RDF>
  </metadata>
  <g
     inkscape:label="Layer 1"
     inkscape:groupmode="layer"
     id="layer1"
     transform="translate(0,-308.2677)">
    <text
       xml:space="preserve"
       style="font-size:40px;font-style:normal;font-weight:normal;line-height:125%;letter-spacing:0px;word-spacing:0px;fill:#000000;fill-opacity:1;stroke:none;font-family:Sans"
       x="1097.0256"
       y="353.33667"
       id="text2987"
       sodipodi:linespacing="125%"><tspan
         sodipodi:role="line"
         id="tspan2989"
         x="1097.0256"
         y="353.33667"
         style="font-size:20px">Create a balanced composition using two colors.</tspan><tspan
         sodipodi:role="line"
         x="1097.0256"
         y="378.33667"
         style="font-size:20px"
         id="tspan3023">Do not change the proportion or the position.</tspan><tspan
         sodipodi:role="line"
         x="1097.0256"
         y="403.33667"
         style="font-size:20px"
         id="tspan3051">You can use two colors of your choice.  </tspan></text>
    <g
       id="lockedBackground"
       sodipodi:insensitive="true"
       inkscape:label="#g3108">
      <desc
         id="desc3166">don't change this</desc>
      <path
         transform="matrix(0.73425951,0,0,0.73425951,45.050175,418.1748)"
         d="m 543.46207,394.5817 c 0,119.38885 -96.78379,216.17263 -216.17264,216.17263 -119.38885,0 -216.17264,-96.78378 -216.17264,-216.17263 0,-119.38886 96.78379,-216.17264 216.17264,-216.17264 119.38885,0 216.17264,96.78378 216.17264,216.17264 z"
         sodipodi:ry="216.17264"
         sodipodi:rx="216.17264"
         sodipodi:cy="394.5817"
         sodipodi:cx="327.28943"
         id="path3039"
         style="fill:none;stroke:#000000"
         sodipodi:type="arc" />
      <path
         sodipodi:type="arc"
         style="fill:none;stroke:#000000"
         id="path3041"
         sodipodi:cx="327.28943"
         sodipodi:cy="394.5817"
         sodipodi:rx="216.17264"
         sodipodi:ry="216.17264"
         d="m 543.46207,394.5817 c 0,119.38885 -96.78379,216.17263 -216.17264,216.17263 -119.38885,0 -216.17264,-96.78378 -216.17264,-216.17263 0,-119.38886 96.78379,-216.17264 216.17264,-216.17264 119.38885,0 216.17264,96.78378 216.17264,216.17264 z"
         transform="matrix(0.18879217,0,0,0.18879217,42.941208,745.3301)" />
      <path
         transform="matrix(0.18879217,0,0,0.18879217,558.62663,771.59407)"
         d="m 543.46207,394.5817 c 0,119.38885 -96.78379,216.17263 -216.17264,216.17263 -119.38885,0 -216.17264,-96.78378 -216.17264,-216.17263 0,-119.38886 96.78379,-216.17264 216.17264,-216.17264 119.38885,0 216.17264,96.78378 216.17264,216.17264 z"
         sodipodi:ry="216.17264"
         sodipodi:rx="216.17264"
         sodipodi:cy="394.5817"
         sodipodi:cx="327.28943"
         id="path3043"
         style="fill:none;stroke:#000000"
         sodipodi:type="arc" />
      <path
         sodipodi:type="arc"
         style="fill:none;stroke:#000000"
         id="path3045"
         sodipodi:cx="327.28943"
         sodipodi:cy="394.5817"
         sodipodi:rx="216.17264"
         sodipodi:ry="216.17264"
         d="m 543.46207,394.5817 c 0,119.38885 -96.78379,216.17263 -216.17264,216.17263 -119.38885,0 -216.17264,-96.78378 -216.17264,-216.17263 0,-119.38886 96.78379,-216.17264 216.17264,-216.17264 119.38885,0 216.17264,96.78378 216.17264,216.17264 z"
         transform="matrix(0.18879217,0,0,0.18879217,784.9008,416.02037)" />
      <path
         transform="matrix(0.18879217,0,0,0.18879217,655.60128,692.80217)"
         d="m 543.46207,394.5817 c 0,119.38885 -96.78379,216.17263 -216.17264,216.17263 -119.38885,0 -216.17264,-96.78378 -216.17264,-216.17263 0,-119.38886 96.78379,-216.17264 216.17264,-216.17264 119.38885,0 216.17264,96.78378 216.17264,216.17264 z"
         sodipodi:ry="216.17264"
         sodipodi:rx="216.17264"
         sodipodi:cy="394.5817"
         sodipodi:cx="327.28943"
         id="path3047"
         style="fill:none;stroke:#000000"
         sodipodi:type="arc" />
      <path
         sodipodi:type="arc"
         style="fill:none;stroke:#000000"
         id="path3049"
         sodipodi:cx="327.28943"
         sodipodi:cy="394.5817"
         sodipodi:rx="216.17264"
         sodipodi:ry="216.17264"
         d="m 543.46207,394.5817 c 0,119.38885 -96.78379,216.17263 -216.17264,216.17263 -119.38885,0 -216.17264,-96.78378 -216.17264,-216.17263 0,-119.38886 96.78379,-216.17264 216.17264,-216.17264 119.38885,0 216.17264,96.78378 216.17264,216.17264 z"
         transform="matrix(0.3333177,0,0,0.3333177,758.81232,620.62275)" />
      <path
         transform="matrix(0.46385689,0,0,0.46385689,542.34199,423.6524)"
         d="m 543.46207,394.5817 c 0,119.38885 -96.78379,216.17263 -216.17264,216.17263 -119.38885,0 -216.17264,-96.78378 -216.17264,-216.17263 0,-119.38886 96.78379,-216.17264 216.17264,-216.17264 119.38885,0 216.17264,96.78378 216.17264,216.17264 z"
         sodipodi:ry="216.17264"
         sodipodi:rx="216.17264"
         sodipodi:cy="394.5817"
         sodipodi:cx="327.28943"
         id="path3051"
         style="fill:none;stroke:#000000"
         sodipodi:type="arc" />
      <path
         sodipodi:type="arc"
         style="fill:none;stroke:#000000"
         id="path3053"
         sodipodi:cx="327.28943"
         sodipodi:cy="394.5817"
         sodipodi:rx="216.17264"
         sodipodi:ry="216.17264"
         d="m 543.46207,394.5817 c 0,119.38885 -96.78379,216.17263 -216.17264,216.17263 -119.38885,0 -216.17264,-96.78378 -216.17264,-216.17263 0,-119.38886 96.78379,-216.17264 216.17264,-216.17264 119.38885,0 216.17264,96.78378 216.17264,216.17264 z"
         transform="matrix(0.31000713,0,0,0.31000713,840.18277,479.30795)" />
      <path
         transform="matrix(0.31000713,0,0,0.31000713,49.735858,358.08965)"
         d="m 543.46207,394.5817 c 0,119.38885 -96.78379,216.17263 -216.17264,216.17263 -119.38885,0 -216.17264,-96.78378 -216.17264,-216.17263 0,-119.38886 96.78379,-216.17264 216.17264,-216.17264 119.38885,0 216.17264,96.78378 216.17264,216.17264 z"
         sodipodi:ry="216.17264"
         sodipodi:rx="216.17264"
         sodipodi:cy="394.5817"
         sodipodi:cx="327.28943"
         id="path3055"
         style="fill:none;stroke:#000000"
         sodipodi:type="arc" />
      <path
         sodipodi:type="arc"
         style="fill:none;stroke:#000000"
         id="path3057"
         sodipodi:cx="327.28943"
         sodipodi:cy="394.5817"
         sodipodi:rx="216.17264"
         sodipodi:ry="216.17264"
         d="m 543.46207,394.5817 c 0,119.38885 -96.78379,216.17263 -216.17264,216.17263 -119.38885,0 -216.17264,-96.78378 -216.17264,-216.17263 0,-119.38886 96.78379,-216.17264 216.17264,-216.17264 119.38885,0 216.17264,96.78378 216.17264,216.17264 z"
         transform="matrix(0.73425951,0,0,0.73425951,45.050175,418.1748)" />
      <path
         transform="matrix(0.18879217,0,0,0.18879217,42.941208,745.3301)"
         d="m 543.46207,394.5817 c 0,119.38885 -96.78379,216.17263 -216.17264,216.17263 -119.38885,0 -216.17264,-96.78378 -216.17264,-216.17263 0,-119.38886 96.78379,-216.17264 216.17264,-216.17264 119.38885,0 216.17264,96.78378 216.17264,216.17264 z"
         sodipodi:ry="216.17264"
         sodipodi:rx="216.17264"
         sodipodi:cy="394.5817"
         sodipodi:cx="327.28943"
         id="path3059"
         style="fill:none;stroke:#000000"
         sodipodi:type="arc" />
      <path
         sodipodi:type="arc"
         style="fill:none;stroke:#000000"
         id="path3061"
         sodipodi:cx="327.28943"
         sodipodi:cy="394.5817"
         sodipodi:rx="216.17264"
         sodipodi:ry="216.17264"
         d="m 543.46207,394.5817 c 0,119.38885 -96.78379,216.17263 -216.17264,216.17263 -119.38885,0 -216.17264,-96.78378 -216.17264,-216.17263 0,-119.38886 96.78379,-216.17264 216.17264,-216.17264 119.38885,0 216.17264,96.78378 216.17264,216.17264 z"
         transform="matrix(0.18879217,0,0,0.18879217,558.62663,771.59407)" />
      <path
         transform="matrix(0.18879217,0,0,0.18879217,784.9008,416.02037)"
         d="m 543.46207,394.5817 c 0,119.38885 -96.78379,216.17263 -216.17264,216.17263 -119.38885,0 -216.17264,-96.78378 -216.17264,-216.17263 0,-119.38886 96.78379,-216.17264 216.17264,-216.17264 119.38885,0 216.17264,96.78378 216.17264,216.17264 z"
         sodipodi:ry="216.17264"
         sodipodi:rx="216.17264"
         sodipodi:cy="394.5817"
         sodipodi:cx="327.28943"
         id="path3063"
         style="fill:none;stroke:#000000"
         sodipodi:type="arc" />
      <path
         sodipodi:type="arc"
         style="fill:none;stroke:#000000"
         id="path3065"
         sodipodi:cx="327.28943"
         sodipodi:cy="394.5817"
         sodipodi:rx="216.17264"
         sodipodi:ry="216.17264"
         d="m 543.46207,394.5817 c 0,119.38885 -96.78379,216.17263 -216.17264,216.17263 -119.38885,0 -216.17264,-96.78378 -216.17264,-216.17263 0,-119.38886 96.78379,-216.17264 216.17264,-216.17264 119.38885,0 216.17264,96.78378 216.17264,216.17264 z"
         transform="matrix(0.18879217,0,0,0.18879217,655.60128,692.80217)" />
      <path
         transform="matrix(0.3333177,0,0,0.3333177,758.81232,620.62275)"
         d="m 543.46207,394.5817 c 0,119.38885 -96.78379,216.17263 -216.17264,216.17263 -119.38885,0 -216.17264,-96.78378 -216.17264,-216.17263 0,-119.38886 96.78379,-216.17264 216.17264,-216.17264 119.38885,0 216.17264,96.78378 216.17264,216.17264 z"
         sodipodi:ry="216.17264"
         sodipodi:rx="216.17264"
         sodipodi:cy="394.5817"
         sodipodi:cx="327.28943"
         id="path3067"
         style="fill:none;stroke:#000000"
         sodipodi:type="arc" />
      <path
         sodipodi:type="arc"
         style="fill:none;stroke:#000000"
         id="path3069"
         sodipodi:cx="327.28943"
         sodipodi:cy="394.5817"
         sodipodi:rx="216.17264"
         sodipodi:ry="216.17264"
         d="m 543.46207,394.5817 c 0,119.38885 -96.78379,216.17263 -216.17264,216.17263 -119.38885,0 -216.17264,-96.78378 -216.17264,-216.17263 0,-119.38886 96.78379,-216.17264 216.17264,-216.17264 119.38885,0 216.17264,96.78378 216.17264,216.17264 z"
         transform="matrix(0.46385689,0,0,0.46385689,542.34199,423.6524)" />
      <path
         transform="matrix(0.31000713,0,0,0.31000713,840.18277,479.30795)"
         d="m 543.46207,394.5817 c 0,119.38885 -96.78379,216.17263 -216.17264,216.17263 -119.38885,0 -216.17264,-96.78378 -216.17264,-216.17263 0,-119.38886 96.78379,-216.17264 216.17264,-216.17264 119.38885,0 216.17264,96.78378 216.17264,216.17264 z"
         sodipodi:ry="216.17264"
         sodipodi:rx="216.17264"
         sodipodi:cy="394.5817"
         sodipodi:cx="327.28943"
         id="path3071"
         style="fill:none;stroke:#000000"
         sodipodi:type="arc" />
      <path
         sodipodi:type="arc"
         style="fill:none;stroke:#000000"
         id="path3073"
         sodipodi:cx="327.28943"
         sodipodi:cy="394.5817"
         sodipodi:rx="216.17264"
         sodipodi:ry="216.17264"
         d="m 543.46207,394.5817 c 0,119.38885 -96.78379,216.17263 -216.17264,216.17263 -119.38885,0 -216.17264,-96.78378 -216.17264,-216.17263 0,-119.38886 96.78379,-216.17264 216.17264,-216.17264 119.38885,0 216.17264,96.78378 216.17264,216.17264 z"
         transform="matrix(0.31000713,0,0,0.31000713,49.735858,358.08965)" />
    </g>
    <path
       transform="matrix(0.73425951,0,0,0.73425951,44.545099,418.26632)"
       d="m 543.46207,394.5817 a 216.17264,216.17264 0 1 1 -432.34528,0 216.17264,216.17264 0 1 1 432.34528,0 z"
       sodipodi:ry="216.17264"
       sodipodi:rx="216.17264"
       sodipodi:cy="394.5817"
       sodipodi:cx="327.28943"
       id="path3130"
       style="fill:none;stroke:#000000"
       sodipodi:type="arc" />
    <path
       sodipodi:type="arc"
       style="fill:none;stroke:#000000"
       id="path3132"
       sodipodi:cx="327.28943"
       sodipodi:cy="394.5817"
       sodipodi:rx="216.17264"
       sodipodi:ry="216.17264"
       d="m 543.46207,394.5817 a 216.17264,216.17264 0 1 1 -432.34528,0 216.17264,216.17264 0 1 1 432.34528,0 z"
       transform="matrix(0.18879217,0,0,0.18879217,42.436132,745.42162)" />
    <path
       transform="matrix(0.18879217,0,0,0.18879217,558.12155,771.68559)"
       d="m 543.46207,394.5817 a 216.17264,216.17264 0 1 1 -432.34528,0 216.17264,216.17264 0 1 1 432.34528,0 z"
       sodipodi:ry="216.17264"
       sodipodi:rx="216.17264"
       sodipodi:cy="394.5817"
       sodipodi:cx="327.28943"
       id="path3134"
       style="fill:none;stroke:#000000"
       sodipodi:type="arc" />
    <path
       sodipodi:type="arc"
       style="fill:none;stroke:#000000"
       id="path3136"
       sodipodi:cx="327.28943"
       sodipodi:cy="394.5817"
       sodipodi:rx="216.17264"
       sodipodi:ry="216.17264"
       d="m 543.46207,394.5817 a 216.17264,216.17264 0 1 1 -432.34528,0 216.17264,216.17264 0 1 1 432.34528,0 z"
       transform="matrix(0.18879217,0,0,0.18879217,784.39572,416.11189)" />
    <path
       transform="matrix(0.18879217,0,0,0.18879217,655.0962,692.89369)"
       d="m 543.46207,394.5817 a 216.17264,216.17264 0 1 1 -432.34528,0 216.17264,216.17264 0 1 1 432.34528,0 z"
       sodipodi:ry="216.17264"
       sodipodi:rx="216.17264"
       sodipodi:cy="394.5817"
       sodipodi:cx="327.28943"
       id="path3138"
       style="fill:none;stroke:#000000"
       sodipodi:type="arc" />
    <path
       sodipodi:type="arc"
       style="fill:none;stroke:#000000"
       id="path3140"
       sodipodi:cx="327.28943"
       sodipodi:cy="394.5817"
       sodipodi:rx="216.17264"
       sodipodi:ry="216.17264"
       d="m 543.46207,394.5817 a 216.17264,216.17264 0 1 1 -432.34528,0 216.17264,216.17264 0 1 1 432.34528,0 z"
       transform="matrix(0.3333177,0,0,0.3333177,758.30724,620.71427)" />
    <path
       transform="matrix(0.46385689,0,0,0.46385689,541.83691,423.74392)"
       d="m 543.46207,394.5817 a 216.17264,216.17264 0 1 1 -432.34528,0 216.17264,216.17264 0 1 1 432.34528,0 z"
       sodipodi:ry="216.17264"
       sodipodi:rx="216.17264"
       sodipodi:cy="394.5817"
       sodipodi:cx="327.28943"
       id="path3142"
       style="fill:none;stroke:#000000"
       sodipodi:type="arc" />
    <path
       sodipodi:type="arc"
       style="fill:none;stroke:#000000"
       id="path3144"
       sodipodi:cx="327.28943"
       sodipodi:cy="394.5817"
       sodipodi:rx="216.17264"
       sodipodi:ry="216.17264"
       d="m 543.46207,394.5817 a 216.17264,216.17264 0 1 1 -432.34528,0 216.17264,216.17264 0 1 1 432.34528,0 z"
       transform="matrix(0.31000713,0,0,0.31000713,839.67769,479.39947)" />
    <path
       transform="matrix(0.31000713,0,0,0.31000713,49.230782,358.18117)"
       d="m 543.46207,394.5817 a 216.17264,216.17264 0 1 1 -432.34528,0 216.17264,216.17264 0 1 1 432.34528,0 z"
       sodipodi:ry="216.17264"
       sodipodi:rx="216.17264"
       sodipodi:cy="394.5817"
       sodipodi:cx="327.28943"
       id="path3146"
       style="fill:none;stroke:#000000"
       sodipodi:type="arc" />
    <path
       sodipodi:type="arc"
       style="fill:none;stroke:#000000"
       id="path3148"
       sodipodi:cx="327.28943"
       sodipodi:cy="394.5817"
       sodipodi:rx="216.17264"
       sodipodi:ry="216.17264"
       d="m 543.46207,394.5817 a 216.17264,216.17264 0 1 1 -432.34528,0 216.17264,216.17264 0 1 1 432.34528,0 z"
       transform="matrix(0.73425951,0,0,0.73425951,44.545099,418.26632)" />
    <path
       transform="matrix(0.18879217,0,0,0.18879217,42.436132,745.42162)"
       d="m 543.46207,394.5817 a 216.17264,216.17264 0 1 1 -432.34528,0 216.17264,216.17264 0 1 1 432.34528,0 z"
       sodipodi:ry="216.17264"
       sodipodi:rx="216.17264"
       sodipodi:cy="394.5817"
       sodipodi:cx="327.28943"
       id="path3150"
       style="fill:none;stroke:#000000"
       sodipodi:type="arc" />
    <path
       sodipodi:type="arc"
       style="fill:none;stroke:#000000"
       id="path3152"
       sodipodi:cx="327.28943"
       sodipodi:cy="394.5817"
       sodipodi:rx="216.17264"
       sodipodi:ry="216.17264"
       d="m 543.46207,394.5817 a 216.17264,216.17264 0 1 1 -432.34528,0 216.17264,216.17264 0 1 1 432.34528,0 z"
       transform="matrix(0.18879217,0,0,0.18879217,558.12155,771.68559)" />
    <path
       transform="matrix(0.18879217,0,0,0.18879217,784.39572,416.11189)"
       d="m 543.46207,394.5817 a 216.17264,216.17264 0 1 1 -432.34528,0 216.17264,216.17264 0 1 1 432.34528,0 z"
       sodipodi:ry="216.17264"
       sodipodi:rx="216.17264"
       sodipodi:cy="394.5817"
       sodipodi:cx="327.28943"
       id="path3154"
       style="fill:none;stroke:#000000"
       sodipodi:type="arc" />
    <path
       sodipodi:type="arc"
       style="fill:none;stroke:#000000"
       id="path3156"
       sodipodi:cx="327.28943"
       sodipodi:cy="394.5817"
       sodipodi:rx="216.17264"
       sodipodi:ry="216.17264"
       d="m 543.46207,394.5817 a 216.17264,216.17264 0 1 1 -432.34528,0 216.17264,216.17264 0 1 1 432.34528,0 z"
       transform="matrix(0.18879217,0,0,0.18879217,655.0962,692.89369)" />
    <path
       transform="matrix(0.3333177,0,0,0.3333177,758.30724,620.71427)"
       d="m 543.46207,394.5817 a 216.17264,216.17264 0 1 1 -432.34528,0 216.17264,216.17264 0 1 1 432.34528,0 z"
       sodipodi:ry="216.17264"
       sodipodi:rx="216.17264"
       sodipodi:cy="394.5817"
       sodipodi:cx="327.28943"
       id="path3158"
       style="fill:none;stroke:#000000"
       sodipodi:type="arc" />
    <path
       sodipodi:type="arc"
       style="fill:none;stroke:#000000"
       id="path3160"
       sodipodi:cx="327.28943"
       sodipodi:cy="394.5817"
       sodipodi:rx="216.17264"
       sodipodi:ry="216.17264"
       d="m 543.46207,394.5817 a 216.17264,216.17264 0 1 1 -432.34528,0 216.17264,216.17264 0 1 1 432.34528,0 z"
       transform="matrix(0.46385689,0,0,0.46385689,541.83691,423.74392)" />
    <path
       transform="matrix(0.31000713,0,0,0.31000713,839.67769,479.39947)"
       d="m 543.46207,394.5817 a 216.17264,216.17264 0 1 1 -432.34528,0 216.17264,216.17264 0 1 1 432.34528,0 z"
       sodipodi:ry="216.17264"
       sodipodi:rx="216.17264"
       sodipodi:cy="394.5817"
       sodipodi:cx="327.28943"
       id="path3162"
       style="fill:none;stroke:#000000"
       sodipodi:type="arc" />
    <path
       sodipodi:type="arc"
       style="fill:none;stroke:#000000"
       id="path3164"
       sodipodi:cx="327.28943"
       sodipodi:cy="394.5817"
       sodipodi:rx="216.17264"
       sodipodi:ry="216.17264"
       d="m 543.46207,394.5817 a 216.17264,216.17264 0 1 1 -432.34528,0 216.17264,216.17264 0 1 1 432.34528,0 z"
       transform="matrix(0.31000713,0,0,0.31000713,49.230782,358.18117)" />
  </g>
</svg>
