<?xml version="1.0" encoding="UTF-8" standalone="no"?>
<!-- Created with Inkscape (http://www.inkscape.org/) -->

<svg
   xmlns:dc="http://purl.org/dc/elements/1.1/"
   xmlns:cc="http://creativecommons.org/ns#"
   xmlns:rdf="http://www.w3.org/1999/02/22-rdf-syntax-ns#"
   xmlns:svg="http://www.w3.org/2000/svg"
   xmlns="http://www.w3.org/2000/svg"
   xmlns:sodipodi="http://sodipodi.sourceforge.net/DTD/sodipodi-0.dtd"
   xmlns:inkscape="http://www.inkscape.org/namespaces/inkscape"
   width="1052.3622"
   height="744.09448"
   id="svg2"
   version="1.1"
   inkscape:version="0.48.4 r9939"
   sodipodi:docname="closureActivity3.svg">
  <defs
     id="defs4" />
  <sodipodi:namedview
     id="base"
     pagecolor="#ffffff"
     bordercolor="#666666"
     borderopacity="1.0"
     inkscape:pageopacity="0.0"
     inkscape:pageshadow="2"
     inkscape:zoom="0.49497475"
     inkscape:cx="569.50331"
     inkscape:cy="520"
     inkscape:document-units="px"
     inkscape:current-layer="layer1"
     showgrid="false"
     inkscape:window-width="1280"
     inkscape:window-height="776"
     inkscape:window-x="0"
     inkscape:window-y="24"
     inkscape:window-maximized="1" />
  <metadata
     id="metadata7">
    <rdf:RDF>
      <cc:Work
         rdf:about="">
        <dc:format>image/svg+xml</dc:format>
        <dc:type
           rdf:resource="http://purl.org/dc/dcmitype/StillImage" />
        <dc:title></dc:title>
      </cc:Work>
    </rdf:RDF>
  </metadata>
  <g
     inkscape:label="Layer 1"
     inkscape:groupmode="layer"
     id="layer1"
     transform="translate(0,-308.2677)">
    <text
       xml:space="preserve"
       style="font-size:40px;font-style:normal;font-weight:normal;line-height:125%;letter-spacing:0px;word-spacing:0px;fill:#000000;fill-opacity:1;stroke:none;font-family:Sans"
       x="1088.9445"
       y="351.31631"
       id="text3066"
       sodipodi:linespacing="125%"><tspan
         sodipodi:role="line"
         id="tspan3068"
         x="1088.9445"
         y="351.31631"
         style="font-size:20px">Manipulate the letter R so that it still retains its characteristics</tspan><tspan
         sodipodi:role="line"
         x="1088.9445"
         y="376.31631"
         style="font-size:20px"
         id="tspan2992" /></text>
    <g
       style="font-size:940.07702637px;font-style:normal;font-weight:normal;line-height:125%;letter-spacing:0px;word-spacing:0px;fill:#000000;fill-opacity:1;stroke:none;font-family:Sans"
       id="text3036">
      <path
         d="m 599.65453,704.53922 c 19.89052,6.73264 39.16942,21.11532 57.83677,43.14807 18.97242,22.03331 37.94531,52.32873 56.91873,90.88635 l 94.09951,187.28096 -99.60777,0 -87.6732,-175.80541 c -22.6455,-45.90197 -44.67854,-76.3504 -66.09917,-91.34537 -21.11536,-14.99444 -50.03372,-22.49179 -86.75515,-22.49208 l -100.98484,0 0,289.64286 -92.72244,0 0,-685.31981 209.31402,0 c 78.33938,6.9e-4 136.78812,16.37245 175.3464,49.11535 38.55733,32.74417 57.83624,82.16549 57.83677,148.2641 -5.3e-4,43.14852 -10.09901,78.95219 -30.29545,107.41115 -19.89144,28.45971 -48.9628,48.19764 -87.21418,59.21383 m -232.26512,-287.80678 0,243.28165 116.59158,0 c 44.6778,3.7e-4 78.33938,-10.25111 100.98484,-30.75447 22.95067,-20.80858 34.42621,-51.25701 34.42665,-91.34538 -4.4e-4,-40.08739 -11.47598,-70.2298 -34.42665,-90.42733 -22.64546,-20.50238 -56.30704,-30.75386 -100.98484,-30.75447 l -116.59158,0"
         style=""
         id="path3041" />
    </g>
  </g>
</svg>
