<?xml version="1.0" encoding="UTF-8" standalone="no"?>
<!-- Generator: Adobe Illustrator 15.0.2, SVG Export Plug-In . SVG Version: 6.00 Build 0)  -->

<svg
   xmlns:dc="http://purl.org/dc/elements/1.1/"
   xmlns:cc="http://creativecommons.org/ns#"
   xmlns:rdf="http://www.w3.org/1999/02/22-rdf-syntax-ns#"
   xmlns:svg="http://www.w3.org/2000/svg"
   xmlns="http://www.w3.org/2000/svg"
   xmlns:sodipodi="http://sodipodi.sourceforge.net/DTD/sodipodi-0.dtd"
   xmlns:inkscape="http://www.inkscape.org/namespaces/inkscape"
   version="1.1"
   id="Layer_1"
   x="0px"
   y="0px"
   width="737.58679"
   height="880.13068"
   viewBox="0 0 737.58676 880.13066"
   enable-background="new 0 0 595.28 841.89"
   xml:space="preserve"
   inkscape:version="0.48.2 r9819"
   sodipodi:docname="panda-scramble.svg"><metadata
   id="metadata3083"><rdf:RDF><cc:Work
       rdf:about=""><dc:format>image/svg+xml</dc:format><dc:type
         rdf:resource="http://purl.org/dc/dcmitype/StillImage" /></cc:Work></rdf:RDF></metadata><defs
   id="defs3081" /><sodipodi:namedview
   pagecolor="#ffffff"
   bordercolor="#666666"
   borderopacity="1"
   objecttolerance="10"
   gridtolerance="10"
   guidetolerance="10"
   inkscape:pageopacity="0"
   inkscape:pageshadow="2"
   inkscape:window-width="640"
   inkscape:window-height="480"
   id="namedview3079"
   showgrid="false"
   fit-margin-top="0"
   fit-margin-left="0"
   fit-margin-right="0"
   fit-margin-bottom="0"
   inkscape:zoom="0.28032165"
   inkscape:cx="-51.646662"
   inkscape:cy="438.88201"
   inkscape:window-x="0"
   inkscape:window-y="0"
   inkscape:window-maximized="0"
   inkscape:current-layer="Layer_1" />
<path
   d="m 566.29999,578.17666 c 5.153,11.344 19.259,16.949 25.189,29.093 6.097,12.488 -1.144,34.826 10.02,43.054 4.155,3.064 12.332,4.591 19.854,4.671 10.705,0.113 20.801,-1.688 29.388,-4.168 15.212,-4.389 30.971,-15.013 38.549,-36.263 5.397,-15.129 1.576,-28.383 -3.237,-41.055 -7.225,-19.023 -20.566,-40.284 -46.426,-47.588 -15.825,-4.47 -29.702,0.236 -41.392,6.382 -10.949,5.754 -14.678,7.78 -23.536,17.833 -9.662,10.962 -12.524,18.983 -8.409,28.041 z"
   id="path3055"
   inkscape:connector-curvature="0" />
<path
   d="m 597.28699,758.22466 c 7.553,9.057 26.093,13.286 37.268,11.543 24.48,-3.822 52.052,-27.974 59.562,-52.824 5.848,-19.343 1.028,-39.896 -10.894,-49.822 -11.609,-9.667 -30.002,-7.237 -39.707,-2.88 -19.353,8.688 -31.979,31.367 -52.335,38.236 -3.22,19.939 -3.584,44.124 6.106,55.747 z"
   id="path3057"
   inkscape:connector-curvature="0" />
<path
   d="m 523.36699,580.26866 c -6.157,-3.858 -12.756,-7.857 -19.02,-7.95 -29.07,-0.434 -39.954,30.062 -37.524,48.507 0.915,6.939 4.426,16.571 7.35,22.158 16.532,31.571 55.384,54.559 83.389,36.964 8.929,-5.608 13.584,-15.131 15.476,-21.92 3.368,-12.111 3.117,-24.351 1.074,-40.298 -5.084,-3.977 -11.253,-6.758 -17.323,-11.133 -11.85,-8.538 -21.936,-19.13 -33.422,-26.328 z"
   id="path3059"
   inkscape:connector-curvature="0" />
<path
   d="m 248.81599,36.355665 c -0.622,-11.148 -17.095,-12.531 -24.933,-19.908 -3.486,-6.9470004 -3.627,-14.6980004 -10.25,-16.2460004 -5.565,-1.302 -10.043,4.041 -15.8,6.275 -11.184,4.3410004 -23.026,3.296 -31.811,5.4820004 -7.647,11.476 -0.511,21.627 8.14,26.071 10.705,5.5 42.949,12.439 52.881,12.986 10.55,0.583 22.361,-4.074 21.773,-14.66 z"
   id="path3061"
   inkscape:connector-curvature="0" />
<path
   d="m 568.64699,798.06066 c 2.182,-1.995 4.581,-3.266 7.051,-3.241 0.772,-0.397 1.012,0.131 1.225,0.706 0.392,0.732 1.226,0.701 1.483,1.671 0.498,13.62 0.096,32.735 3.755,48.692 1.562,6.809 7.015,15.031 0.099,19.648 -0.311,-0.054 -0.615,-0.131 -0.92,-0.204 7.669,6.358 16.042,11.356 22.584,14.798 -1.979,-1.945 -3.82,-4.169 -5.03,-6.635 -8.823,-17.954 6.229,-33.313 2.039,-50.248 -1.771,-7.152 -7.595,-12.299 -10.016,-18.02 -4.389,-10.373 -5.886,-25.142 -0.571,-32.98 0.51,-0.753 1.063,-1.486 1.636,-2.21 -7.882,7.13 -16.903,16.764 -23.335,28.023 z"
   id="path3063"
   inkscape:connector-curvature="0" />
<path
   d="m 557.02799,714.13666 c -6.445,-7.888 -8.714,-17.486 -19.286,-20.928 -7.471,-2.434 -18.023,3.963 -26.602,4.731 -19.149,1.72 -40.558,-5.951 -57.516,-5.479 -11.899,17.197 -20.431,35.307 -22.596,49.209 -1.729,11.124 -2.001,26.12 1.742,34.086 6.314,13.436 21.275,22.906 36.405,29.237 29.488,12.337 73.572,5.098 88.711,-24.132 7.727,-14.919 2.81,-28.614 5.684,-46.346 0.099,-4.403 -0.733,-10.752 -6.542,-20.378 z"
   id="path3065"
   inkscape:connector-curvature="0" />
<path
   d="M -9.4696599e-6,202.75366 C 6.3309905,202.30066 12.678991,201.93266 19.129991,202.26966 c 24.988,1.308 54.531,9.681 80.346,10.698 15.287999,0.602 33.870999,-2.859 50.826999,-6.525 47.752,-10.322 92.777,-35.97 105.427,-88.494 1.908,-7.923 3.555,-15.194 3.877,-22.670995 0.316,-7.329 -1.631,-24.061 -10.233,-29.143 -13.041,-7.704 -25.136,1.522 -38.805,1.48 -4.464,-0.015 -8.885,-1.951 -12.814,-2.192 -9.526,-0.585 -20.209,3.456 -27.428,-5.703 C 133.18499,135.83766 81.575991,191.51866 -9.4696599e-6,202.75366 z"
   id="path3067"
   inkscape:connector-curvature="0" />
<path
   d="m 310.25999,247.58966 c 5.891,13.678 6.018,30.511 5.239,45.929 -2.283,45.191 -16.364,94.344 -53.579,138.226 -27.271,32.155 -61.841,49.137 -92.971,58.569 -16.143,4.891 -31.13,8.02 -46.615,8.779 -14.025,0.688 -28.294999,-0.271 -41.020999,-1.156 0.058,0.004 -5.22,-3.77 -3.53,0.729 7.53,7.924 19.094,8.506 28.345999,9.723 22.783,2.99 40.838,4.32 62.233,1.021 32.959,-5.082 63.836,-17.52 96.636,-38.086 33.267,-20.859 65.796,-54.584 88.551,-86.825 3.806,-5.394 7.085,-11.066 10.45,-16.701 37.503,-73.311 21.408,-147.504 -19.725,-221.541 0,0 -0.003,0 -0.004,0 -5.628,21.548 -18.903,86.034 -34.01,101.333 z"
   id="path3069"
   inkscape:connector-curvature="0" />
<path
   d="m 403.95299,347.97866 c -1.402,79.916 -44.241,147.17 -129.668,154.27 -6.221,0.518 -14.041,-1.504 -20.014,0.66 -8.877,3.215 -12.991,19.93 -20.851,26.818 -1.214,1.064 -2.573,2.172 -4.035,3.205 -4.553,5.824 -10.964,13.172 -18.591,19.584 -2.328,5.324 -8.102,9.584 -15.336,12.379 130.526,-18.199 226.517,-101.797 216.941,-217.017 -0.221,-2.659 -0.507,-5.35 -0.849,-8.063 -2.302,-5.617 -4.827,-10.942 -7.593,-15.919 -2.565,8.214 0.139,16.002 -0.004,24.083 z"
   id="path3071"
   inkscape:connector-curvature="0" />
<path
   d="m 428.53399,199.76666 c 1.896,2.684 3.447,5.493 4.542,8.349 2.009,5.242 3.168,13.138 1.826,19.041 1.127,12.918 -0.801,25.975 -3.216,36.323 -0.709,11.215 -6.113,23.152 -8.79,35.594 27.799,37.988 38.702,75.108 31.508,114.457 -4.436,24.262 -18.211,54.38 -39.771,76.388 -15.382,15.701 -30.542,25.273 -45.987,35.752 -27.823,18.873 -58.083,34.145 -85.154,34.039 3.798,10.582 3.366,16.973 2.404,21.268 0.206,-0.549 0.42,-1.1 0.645,-1.652 34.3,1.963 63.314,3.523 95.308,-5.793 35.91,-10.459 73.341,-29.227 106.032,-66.498 6.381,-8.463 12.387,-16.697 18.02,-24.506 0,-0.004 0.002,-0.004 0.004,-0.008 2.771,-4.24 5.555,-8.52 8.478,-12.729 54.722,-89.294 13.001,-184.004 -85.849,-270.025 z"
   id="path3073"
   inkscape:connector-curvature="0" />
<path
   d="m 312.89099,67.781665 c -0.122,2.734 -0.296,5.433 -0.528,8.091 -10.04,115.177995 -118.782,181.347995 -250.506999,177.218995 -1.85,0.373 -3.772,0.64 -5.734,0.811 7.995,2.945 21.429,11.672 34.68,24.886 7.509,5.026 12.098999,15.944 12.622999,24.199 2.214,34.762 -14.585999,82.092 -17.780999,111.879 -1.1,10.236 -0.886,25.476 2.288,31.317 5.446,10.016 24.370999,13.758 41.969999,13.695 15.038,-0.053 30.771,-4.629 45.049,-10.125 13.615,-5.242 28.082,-11.168 37.775,-18.792 10.356,-8.146 18.62,-21.188 24.955,-32.958 22.287,-41.402 43.099,-85.239 57.897,-134.481 17.44,-58.029 30.037,-138.542 17.313,-195.740995 z"
   id="path3075"
   inkscape:connector-curvature="0" />
<path
   d="m 507.72999,241.97066 c 55.893,118.519 55.99,222.01 -30.029,281.747 7.688,-4.713 15.68,-9.033 24.375,-12.047 8.6,-2.979 19.33,-1.01 30.008,-4.639 16.625,-5.65 28.558,-19.061 44.949,-24.18 19.318,-9.436 53.191,-65.892 65.635,-84.362 21.213,-35.194 52.398,-73.085 73.033,-110.232 23.255,-41.864 34.175,-99.363 0.958,-150.709 -9.73,-15.04 -30.45,-35.16 -42.651,-30.362 -6.524,2.565 -9.028,11.84 -12.225,15.986 -4.617,5.991 -10.733,11.823 -14.46,15.965 -8.42,9.361 -21.896,20.729 -36.047,28.734 -8.977,5.079 -16.997,8.608 -24.721,13.187 -16.852,9.988 -32.029,19.86 -49.4,21.9 -12.467,1.465 -28.601,-2.801 -34.71,-18.66 -0.806,-2.096 -1.096,-4.31 -0.988,-6.553 -4.495,18.164 -5.054,34.174 -3.459,42.543 4.607,6.343 8.184,14.076 9.732,21.682 z"
   id="path3077"
   inkscape:connector-curvature="0" />
</svg>