<?xml version="1.0" encoding="UTF-8" standalone="no"?>
<!-- Created with Inkscape (http://www.inkscape.org/) -->

<svg
   xmlns:dc="http://purl.org/dc/elements/1.1/"
   xmlns:cc="http://creativecommons.org/ns#"
   xmlns:rdf="http://www.w3.org/1999/02/22-rdf-syntax-ns#"
   xmlns:svg="http://www.w3.org/2000/svg"
   xmlns="http://www.w3.org/2000/svg"
   xmlns:sodipodi="http://sodipodi.sourceforge.net/DTD/sodipodi-0.dtd"
   xmlns:inkscape="http://www.inkscape.org/namespaces/inkscape"
   width="1052.3622"
   height="744.09448"
   id="svg2997"
   version="1.1"
   inkscape:version="0.48.4 r9939"
   sodipodi:docname="processExample1.svg">
  <defs
     id="defs2999" />
  <sodipodi:namedview
     id="base"
     pagecolor="#ffffff"
     bordercolor="#666666"
     borderopacity="1.0"
     inkscape:pageopacity="1"
     inkscape:pageshadow="2"
     inkscape:zoom="0.175"
     inkscape:cx="-72.142857"
     inkscape:cy="261.06214"
     inkscape:document-units="px"
     inkscape:current-layer="layer1"
     showgrid="false"
     inkscape:window-width="1280"
     inkscape:window-height="776"
     inkscape:window-x="0"
     inkscape:window-y="24"
     inkscape:window-maximized="1" />
  <metadata
     id="metadata3002">
    <rdf:RDF>
      <cc:Work
         rdf:about="">
        <dc:format>image/svg+xml</dc:format>
        <dc:type
           rdf:resource="http://purl.org/dc/dcmitype/StillImage" />
        <dc:title />
      </cc:Work>
    </rdf:RDF>
  </metadata>
  <g
     inkscape:label="Layer 1"
     inkscape:groupmode="layer"
     id="layer1"
     transform="translate(0,-308.2677)">
    <rect
       style="fill:#ffffff;fill-opacity:1;stroke:none"
       id="rect2993"
       width="1048.5383"
       height="740.44177"
       x="2.5879784"
       y="311.28418" />
    <g
       id="g2986"
       transform="matrix(0,1,-1,0,1044.8799,349.28581)">
      <path
         d="m 248.30252,73.524368 c 0,102.544402 -83.12866,185.673062 -185.673061,185.673062 -102.544402,0 -185.673069,-83.12866 -185.673069,-185.673062 0,-102.544402 83.128667,-185.673068 185.673069,-185.673068 102.544401,0 185.673061,83.128666 185.673061,185.673068 z"
         sodipodi:ry="185.67307"
         sodipodi:rx="185.67307"
         sodipodi:cy="73.524368"
         sodipodi:cx="62.629459"
         id="path3009"
         style="fill:none;stroke:#000000;stroke-width:3.83385825;stroke-linejoin:round;stroke-miterlimit:4;stroke-opacity:1;stroke-dasharray:none"
         sodipodi:type="arc"
         transform="translate(-52.527932,-70.710679)" />
      <path
         d="m 248.30252,73.524368 c 0,102.544402 -83.12866,185.673062 -185.673061,185.673062 -102.544402,0 -185.673069,-83.12866 -185.673069,-185.673062 0,-102.544402 83.128667,-185.673068 185.673069,-185.673068 102.544401,0 185.673061,83.128666 185.673061,185.673068 z"
         sodipodi:ry="185.67307"
         sodipodi:rx="185.67307"
         sodipodi:cy="73.524368"
         sodipodi:cx="62.629459"
         id="path3011"
         style="fill:none;stroke:#000000;stroke-width:3.83385825;stroke-linejoin:round;stroke-miterlimit:4;stroke-opacity:1;stroke-dasharray:none"
         sodipodi:type="arc"
         transform="translate(-62.629457,981.86828)" />
      <path
         sodipodi:type="arc"
         style="fill:none;stroke:#000000;stroke-width:3.83385825;stroke-linejoin:round;stroke-miterlimit:4;stroke-opacity:1;stroke-dasharray:none"
         id="path3013"
         sodipodi:cx="62.629459"
         sodipodi:cy="73.524368"
         sodipodi:rx="185.67307"
         sodipodi:ry="185.67307"
         d="m 248.30252,73.524368 c 0,102.544402 -83.12866,185.673062 -185.673061,185.673062 -102.544402,0 -185.673069,-83.12866 -185.673069,-185.673062 0,-102.544402 83.128667,-185.673068 185.673069,-185.673068 102.544401,0 185.673061,83.128666 185.673061,185.673068 z"
         transform="translate(682.86312,-74.751288)" />
      <path
         transform="translate(692.96464,971.76675)"
         d="m 248.30252,73.524368 c 0,102.544402 -83.12866,185.673062 -185.673061,185.673062 -102.544402,0 -185.673069,-83.12866 -185.673069,-185.673062 0,-102.544402 83.128667,-185.673068 185.673069,-185.673068 102.544401,0 185.673061,83.128666 185.673061,185.673068 z"
         sodipodi:ry="185.67307"
         sodipodi:rx="185.67307"
         sodipodi:cy="73.524368"
         sodipodi:cx="62.629459"
         id="path3005"
         style="fill:none;stroke:#000000;stroke-width:3.83385825;stroke-linejoin:round;stroke-miterlimit:4;stroke-opacity:1;stroke-dasharray:none"
         sodipodi:type="arc" />
    </g>
  </g>
</svg>
