<?xml version="1.0" encoding="UTF-8" standalone="no"?>
<!-- Created with Inkscape (http://www.inkscape.org/) -->

<svg
   xmlns:dc="http://purl.org/dc/elements/1.1/"
   xmlns:cc="http://creativecommons.org/ns#"
   xmlns:rdf="http://www.w3.org/1999/02/22-rdf-syntax-ns#"
   xmlns:svg="http://www.w3.org/2000/svg"
   xmlns="http://www.w3.org/2000/svg"
   xmlns:sodipodi="http://sodipodi.sourceforge.net/DTD/sodipodi-0.dtd"
   xmlns:inkscape="http://www.inkscape.org/namespaces/inkscape"
   width="1052.3622"
   height="744.09448"
   id="svg3019"
   version="1.1"
   inkscape:version="0.48.4 r9939"
   sodipodi:docname="processExample2.svg">
  <defs
     id="defs3021" />
  <sodipodi:namedview
     id="base"
     pagecolor="#ffffff"
     bordercolor="#666666"
     borderopacity="1.0"
     inkscape:pageopacity="1"
     inkscape:pageshadow="2"
     inkscape:zoom="0.98994949"
     inkscape:cx="485.42303"
     inkscape:cy="137.88429"
     inkscape:document-units="px"
     inkscape:current-layer="layer1"
     showgrid="false"
     inkscape:window-width="1280"
     inkscape:window-height="776"
     inkscape:window-x="0"
     inkscape:window-y="24"
     inkscape:window-maximized="1" />
  <metadata
     id="metadata3024">
    <rdf:RDF>
      <cc:Work
         rdf:about="">
        <dc:format>image/svg+xml</dc:format>
        <dc:type
           rdf:resource="http://purl.org/dc/dcmitype/StillImage" />
        <dc:title />
      </cc:Work>
    </rdf:RDF>
  </metadata>
  <g
     inkscape:label="Layer 1"
     inkscape:groupmode="layer"
     id="layer1"
     transform="translate(0,-308.2677)">
    <rect
       style="fill:#ffffff;fill-opacity:1;stroke:none"
       id="rect2993"
       width="1048.5383"
       height="740.44177"
       x="2.4552958"
       y="311.21777" />
    <g
       id="g2988"
       transform="translate(140,140)">
      <path
         transform="translate(47.714287,-177.14285)"
         sodipodi:type="arc"
         style="fill:none;stroke:#000000;stroke-width:3.83385825;stroke-linejoin:round;stroke-miterlimit:4;stroke-opacity:1;stroke-dasharray:none"
         id="path3029"
         sodipodi:cx="332.85715"
         sodipodi:cy="135.21933"
         sodipodi:rx="418.35684"
         sodipodi:ry="418.35684"
         d="m 751.21399,135.21933 c 0,231.0521 -187.30474,418.35684 -418.35684,418.35684 -231.05211,0 -418.356845,-187.30474 -418.356845,-418.35684 0,-231.052104 187.304735,-418.35684 418.356845,-418.35684 231.0521,0 418.35684,187.304736 418.35684,418.35684 z" />
      <path
         transform="translate(646.28571,405.71429)"
         sodipodi:type="arc"
         style="fill:none;stroke:#000000;stroke-width:3.83385825;stroke-linejoin:round;stroke-miterlimit:4;stroke-opacity:1;stroke-dasharray:none"
         id="path3031"
         sodipodi:cx="332.85715"
         sodipodi:cy="135.21933"
         sodipodi:rx="418.35684"
         sodipodi:ry="418.35684"
         d="m 751.21399,135.21933 c 0,231.0521 -187.30474,418.35684 -418.35684,418.35684 -231.05211,0 -418.356845,-187.30474 -418.356845,-418.35684 0,-231.052104 187.304735,-418.35684 418.356845,-418.35684 231.0521,0 418.35684,187.304736 418.35684,418.35684 z" />
      <path
         transform="translate(47.714287,988.57143)"
         sodipodi:type="arc"
         style="fill:none;stroke:#000000;stroke-width:3.83385825;stroke-linejoin:round;stroke-miterlimit:4;stroke-opacity:1;stroke-dasharray:none"
         id="path3033"
         sodipodi:cx="332.85715"
         sodipodi:cy="135.21933"
         sodipodi:rx="418.35684"
         sodipodi:ry="418.35684"
         d="m 751.21399,135.21933 c 0,231.0521 -187.30474,418.35684 -418.35684,418.35684 -231.05211,0 -418.356845,-187.30474 -418.356845,-418.35684 0,-231.052104 187.304735,-418.35684 418.356845,-418.35684 231.0521,0 418.35684,187.304736 418.35684,418.35684 z" />
      <path
         transform="translate(-556.57143,405.71429)"
         sodipodi:type="arc"
         style="fill:none;stroke:#000000;stroke-width:3.83385825;stroke-linejoin:round;stroke-miterlimit:4;stroke-opacity:1;stroke-dasharray:none"
         id="path3035"
         sodipodi:cx="332.85715"
         sodipodi:cy="135.21933"
         sodipodi:rx="418.35684"
         sodipodi:ry="418.35684"
         d="m 751.21399,135.21933 c 0,231.0521 -187.30474,418.35684 -418.35684,418.35684 -231.05211,0 -418.356845,-187.30474 -418.356845,-418.35684 0,-231.052104 187.304735,-418.35684 418.356845,-418.35684 231.0521,0 418.35684,187.304736 418.35684,418.35684 z" />
    </g>
  </g>
</svg>
