<?xml version="1.0" encoding="UTF-8" standalone="no"?>
<!-- Generator: Adobe Illustrator 15.0.2, SVG Export Plug-In . SVG Version: 6.00 Build 0)  -->

<svg
   xmlns:dc="http://purl.org/dc/elements/1.1/"
   xmlns:cc="http://creativecommons.org/ns#"
   xmlns:rdf="http://www.w3.org/1999/02/22-rdf-syntax-ns#"
   xmlns:svg="http://www.w3.org/2000/svg"
   xmlns="http://www.w3.org/2000/svg"
   xmlns:sodipodi="http://sodipodi.sourceforge.net/DTD/sodipodi-0.dtd"
   xmlns:inkscape="http://www.inkscape.org/namespaces/inkscape"
   version="1.1"
   id="Layer_1"
   x="0px"
   y="0px"
   width="841.89px"
   height="595.28px"
   viewBox="0 0 841.89 595.28"
   enable-background="new 0 0 841.89 595.28"
   xml:space="preserve"
   inkscape:version="0.48.2 r9819"
   sodipodi:docname="thirds-activity.svg"><metadata
   id="metadata3119"><rdf:RDF><cc:Work
       rdf:about=""><dc:format>image/svg+xml</dc:format><dc:type
         rdf:resource="http://purl.org/dc/dcmitype/StillImage" /></cc:Work></rdf:RDF></metadata><defs
   id="defs3117" /><sodipodi:namedview
   pagecolor="#ffffff"
   bordercolor="#666666"
   borderopacity="1"
   objecttolerance="10"
   gridtolerance="10"
   guidetolerance="10"
   inkscape:pageopacity="0"
   inkscape:pageshadow="2"
   inkscape:window-width="1125"
   inkscape:window-height="855"
   id="namedview3115"
   showgrid="false"
   inkscape:zoom="1.5858083"
   inkscape:cx="521.83993"
   inkscape:cy="221.96882"
   inkscape:window-x="0"
   inkscape:window-y="0"
   inkscape:window-maximized="0"
   inkscape:current-layer="Layer_1"
   inkscape:snap-page="true" />
<g
   id="g3073"
   sodipodi:insensitive="true">
	<rect
   x="248.166"
   y="-110.334"
   width="86.667"
   height="103.333"
   id="rect3075"
   style="fill:#464547" />
	<text
   transform="translate(0,-131.2236)"
   font-size="12"
   id="text3077"
   style="font-size:12px;font-family:MyriadPro-Regular">Land pieces </text>

	<text
   transform="translate(405.8242,-131.2236)"
   font-size="12"
   id="text3079"
   style="font-size:12px;font-family:MyriadPro-Regular">tree</text>

	<text
   transform="translate(280.8135,-131.2236)"
   font-size="12"
   id="text3081"
   style="font-size:12px;font-family:MyriadPro-Regular">clouds</text>

	<text
   transform="translate(176.521,-131.2236)"
   font-size="12"
   id="text3083"
   style="font-size:12px;font-family:MyriadPro-Regular">sun</text>

	<text
   transform="translate(508,-133)"
   id="text3085"><tspan
     x="0"
     y="0"
     font-size="12"
     id="tspan3087"
     style="font-size:12px;font-family:MyriadPro-Regular">make a composition using these objects and the rule of thirds. </tspan><tspan
     x="0"
     y="14.4"
     font-size="12"
     id="tspan3089"
     style="font-size:12px;font-family:MyriadPro-Regular">you may only use each item once. </tspan><tspan
     x="0"
     y="28.799999"
     font-size="12"
     id="tspan3091"
     style="font-size:12px;font-family:MyriadPro-Regular">you may not change colors.</tspan><tspan
     x="0"
     y="43.200001"
     font-size="12"
     id="tspan3093"
     style="font-size:12px;font-family:MyriadPro-Regular">you may resize objects.</tspan><tspan
     x="0"
     y="57.599998"
     font-size="12"
     id="tspan3095"
     style="font-size:12px;font-family:MyriadPro-Regular">you may overlap objects. </tspan></text>

</g>
<rect
   width="841.89001"
   height="595.28003"
   id="rect3097"
   x="-5.6621374e-14"
   y="-9.4696597e-06"
   style="fill:#00c0f3"
   sodipodi:insensitive="true" />
<path
   fill="#48BD9D"
   d="M0-57.689c27.425-4.104,82.664-36.565,126.403-4.291v13.851H0V-57.689z"
   id="path3099" />
<path
   fill="#98D09C"
   d="M126.403-88.934c-18.368-1.306-91.516-29.29-121.366-3.731V-81h121.366V-88.934z"
   id="path3101" />
<circle
   fill="#F4F3B0"
   cx="188.094"
   cy="-76.13"
   r="9.885"
   id="circle3103" />
<path
   fill="#FFFFFF"
   d="M314.932-25.113c0.063-0.208,0.099-0.419,0.099-0.635c0-1.875-2.54-3.477-6.14-4.139  c0.006-0.107,0.016-0.215,0.016-0.325c0-2.869-2.324-5.195-5.196-5.195c-2.867,0-5.193,2.326-5.193,5.195  c0,0.225,0.021,0.444,0.047,0.66c-0.938-0.278-2.017-0.44-3.167-0.44c-3.589,0-6.501,1.555-6.501,3.473  c0,0.258,0.054,0.512,0.155,0.754c-7.62,0.529-12.885,1.658-12.885,2.966c0,1.815,10.148,3.284,22.668,3.284  c12.518,0,22.667-1.469,22.667-3.284C321.501-23.702,318.993-24.519,314.932-25.113z"
   id="path3105" />
<path
   fill="#FFFFFF"
   d="M306.47-68.213c1.2-1.003,1.9-2.208,1.9-3.506c0-3.482-5.034-6.304-11.241-6.304  c-1.205,0-2.362,0.107-3.448,0.303c0.092-0.552,0.144-1.12,0.144-1.696c0-5.918-5.061-10.714-11.307-10.714  c-6.243,0-11.304,4.796-11.304,10.714c0,0.451,0.034,0.893,0.09,1.33c-2.963,1.263-4.895,3.309-4.919,5.622  c-3.827,0.426-6.618,1.754-6.618,3.327c0,0.552,0.345,1.072,0.956,1.537c-3.316,0.561-5.253,1.238-5.253,1.967  c0,1.934,13.621,3.502,30.418,3.502s30.419-1.568,30.419-3.502C316.307-66.654,312.516-67.571,306.47-68.213z"
   id="path3107" />
<g
   id="g3109">
	<path
   fill="#48BD9D"
   d="M418.854-84.113c-0.083,0-0.166,0-0.251,0.002c-3.67-1.71-8.258-2.726-13.239-2.726   c-12.033,0-21.79,5.932-21.79,13.249c0,0.41,0.033,0.815,0.094,1.215c-7.476,2.1-12.664,6.698-12.664,12.033   c0,7.318,9.755,13.249,21.79,13.249c3.745,0,7.27-0.575,10.35-1.586v11.254h13.782v-20.245c0.636,0.034,1.279,0.052,1.929,0.052   c12.037,0,21.791-5.932,21.791-13.249S430.892-84.113,418.854-84.113z"
   id="path3111" />
	<rect
   x="402.662"
   y="-62.13"
   fill="#C2B59B"
   width="14.264"
   height="24.707"
   id="rect3113" />
</g>
</svg>