<?xml version="1.0" encoding="UTF-8" standalone="no"?>
<!-- Generator: Adobe Illustrator 15.0.2, SVG Export Plug-In . SVG Version: 6.00 Build 0)  -->

<svg
   xmlns:dc="http://purl.org/dc/elements/1.1/"
   xmlns:cc="http://creativecommons.org/ns#"
   xmlns:rdf="http://www.w3.org/1999/02/22-rdf-syntax-ns#"
   xmlns:svg="http://www.w3.org/2000/svg"
   xmlns="http://www.w3.org/2000/svg"
   xmlns:sodipodi="http://sodipodi.sourceforge.net/DTD/sodipodi-0.dtd"
   xmlns:inkscape="http://www.inkscape.org/namespaces/inkscape"
   version="1.1"
   id="Layer_1"
   x="0px"
   y="0px"
   width="425.56827"
   height="217.56879"
   viewBox="0 0 425.56826 217.56878"
   enable-background="new 0 0 240.94 269.29"
   xml:space="preserve"
   inkscape:version="0.48.2 r9819"
   sodipodi:docname="faq.svg"><metadata
   id="metadata3695"><rdf:RDF><cc:Work
       rdf:about=""><dc:format>image/svg+xml</dc:format><dc:type
         rdf:resource="http://purl.org/dc/dcmitype/StillImage" /><dc:title></dc:title></cc:Work></rdf:RDF></metadata><defs
   id="defs3693" /><sodipodi:namedview
   pagecolor="#ffffff"
   bordercolor="#666666"
   borderopacity="1"
   objecttolerance="10"
   gridtolerance="10"
   guidetolerance="10"
   inkscape:pageopacity="0"
   inkscape:pageshadow="2"
   inkscape:window-width="1448"
   inkscape:window-height="867"
   id="namedview3691"
   showgrid="false"
   fit-margin-top="0"
   fit-margin-left="0"
   fit-margin-right="0"
   fit-margin-bottom="0"
   inkscape:zoom="0.90509668"
   inkscape:cx="69.40907"
   inkscape:cy="196.94861"
   inkscape:window-x="0"
   inkscape:window-y="0"
   inkscape:window-maximized="0"
   inkscape:current-layer="Layer_1" />





























































<path
   style="fill:#ffffff"
   d="m 257.47163,1.8382806 c 4.73173,12.8572804 9.46726,25.6939104 14.21875,38.5312504 l 12,0 c -4.14074,-12.74403 -8.49521,-25.58869 -12.96875,-38.5312504 l -13.25,0 z"
   id="path3483"
   inkscape:connector-curvature="0" />
<path
   style="fill:#ffffff"
   d="m 275.47163,1.8382806 c 4.71456,12.8707604 9.43743,25.7274304 14.21875,38.5312504 l 14,0 c -4.30843,-12.94075 -8.72726,-25.77362 -13.21875,-38.5312504 l -15,0 z"
   id="path3485"
   inkscape:connector-curvature="0" />































<path
   style="fill:#ffffff"
   d="m 295.03413,1.8382806 c 1.69385,4.70417 3.29809,9.4913904 4.65625,14.5312504 l 69,0 c 3.001,-6.162 4.935,-10.7460004 11,-12.0000004 23.356,-4.82900002 27.294,33.4920004 -1,29.0000004 -5.81,-1.857 -7.048,-8.285 -11,-12 -21.668,0.666 -45.999,-1.332 -66,1 3.153,5.18 4.622,12.044 7,18 l 113,0 0,-7 c -18.133,0.947 -18.228,-30.0330004 0,-29.0000004 l 0,-2.53125 -62.78125,0 c -2.71815,1.19841 -5.15808,2.67539 -7.21875,4.53125 -1.76865,-1.45 -3.47799,-2.95948 -5.125,-4.53125 l -51.53125,0 z"
   id="path3549"
   inkscape:connector-curvature="0" />
<path
   style="fill:#ffffff"
   d="m 2.690383,1.8382806 0,10.5312504 112.999997,0 c -0.23524,-3.2679004 -0.0891,-6.9078504 0.0312,-10.5312504 l -113.031247,0 z"
   id="path3551"
   inkscape:connector-curvature="0" />
<path
   style="fill:#ffffff"
   d="m 119.47163,1.8382806 c 0.0998,4.0435 0.52449,7.95116 1.21875,10.5312504 l 135,0 C 254.86065,8.5750706 253.62992,5.1789706 252.34663,1.8382806 l -132.875,0 z"
   id="path3553"
   inkscape:connector-curvature="0" />
<path
   clip-rule="evenodd"
   d="m 381.69038,9.3782835 c 15.968,-3.806 15.271,19.4169995 3,19.9999995 -10.645,0.506 -16.509,-16.78 -3,-19.9999995 z"
   id="path3555"
   inkscape:connector-curvature="0"
   style="fill:#ffffff;fill-rule:evenodd" />
<path
   clip-rule="evenodd"
   d="m 421.69038,8.3782835 c 0,6.9999995 0,13.9999995 0,20.9999995 -11.261,-0.596 -12.136,-20.7069995 0,-20.9999995 z"
   id="path3557"
   inkscape:connector-curvature="0"
   style="fill:#ffffff;fill-rule:evenodd" />
<path
   clip-rule="evenodd"
   d="m 2.690383,16.378283 c 29.634,-8.4899995 36.643,30.288 14,35 17.077,2.305 18.723,33.187 0,35 16.656,3.275 18.474,32.103997 1,35.999997 20.964,6.325 14.689,43.236 -15,35 0,-47 0,-93.999997 0,-140.999997 z"
   id="path3559"
   inkscape:connector-curvature="0"
   style="fill:#ffffff;fill-rule:evenodd" />
<path
   clip-rule="evenodd"
   d="m 27.690383,16.378283 c 31.804,-10.3879995 45.577,26.613 21,35 15.64,2.897 17.898,32.747 0,35 7.265,5.068 15.11,9.557 13,23.999997 -3.274,5.06 -6.897,9.77 -13,12 24.176,8.596 11.499,45.669 -21,35 8.508,-6.787 9.95,-28.771 -1,-34 10.12,-7.753 10.12,-29.246997 0,-36.999997 10.61,-5.159 10.398,-28.782 0,-34 9.42,-7.264 10.568,-27.931 1,-36 z"
   id="path3561"
   inkscape:connector-curvature="0"
   style="fill:#ffffff;fill-rule:evenodd" />
<path
   clip-rule="evenodd"
   d="m 58.690383,16.378283 c 9.333,0 18.667,0 28,0 0,47 0,93.999997 0,140.999997 -8.667,0 -17.333,0 -26,0 -0.846,-3.507 5.901,-9.205 6,-17 0.115,-8.997 -5.506,-13.005 -9,-19 11.677,-5.449 10.845,-28.260997 0,-33.999997 11.551,-7.859 10.185,-28.73 0,-37 12.307,-5.325 9.794,-26.865 1,-34 z"
   id="path3563"
   inkscape:connector-curvature="0"
   style="fill:#ffffff;fill-rule:evenodd" />
<path
   clip-rule="evenodd"
   d="m 92.690383,16.378283 c 16.999997,0 33.999997,0 50.999997,0 2.329,45.004 0.336,94.329997 1,140.999997 -17.667,0 -35.333,0 -52.999997,0 0.667,-46.667 -1.333,-95.999997 1,-140.999997 z m 27.999997,47 c 16.614,-2.896 14.555,-32.661 -6,-29 -20.863997,3.716 -11.386,32.03 6,29 z m -18,21 c -3.721997,27.758997 36.625,19.103997 29,-3 -1.756,-5.092 -8.478,-11.133 -19,-8 -6.142,2.117 -9.251,5.415 -10,11 z m 1,33.999997 c -5.798997,15.869 9.095,26.982 23,20 7.093,-5.748 7.093,-19.252 0,-25 -3.216,-1.481 -11.028,-3.599 -15,-1 -4.048,0.618 -5.096,4.237 -8,6 z"
   id="path3565"
   inkscape:connector-curvature="0"
   style="fill:#ffffff;fill-rule:evenodd" />
<path
   clip-rule="evenodd"
   d="m 257.69038,16.378283 c 2.693,7.974 6.646,14.688 8,24 -39,0 -78,0 -117,0 0.659,-7.675 -1.323,-17.989 1,-24 36,0 72,0 108,0 z"
   id="path3567"
   inkscape:connector-curvature="0"
   style="fill:#ffffff;fill-rule:evenodd" />
<path
   clip-rule="evenodd"
   d="m 113.69038,39.378283 c 9.62,-3.516 13.187,1.622 14,7 4.042,26.719 -38.274997,1.871 -14,-7 z"
   id="path3569"
   inkscape:connector-curvature="0"
   style="fill:#ffffff;fill-rule:evenodd" />
<path
   clip-rule="evenodd"
   d="m 148.69038,44.378283 c 10.667,0 21.333,0 32,0 -10.814,6.963 -22.195,13.985 -24,29 -2.41,20.052 10.209,32.061997 24,39.999997 -10.667,0 -21.333,0 -32,0 0,-22.999997 0,-45.999997 0,-68.999997 z"
   id="path3571"
   inkscape:connector-curvature="0"
   style="fill:#ffffff;fill-rule:evenodd" />
<path
   clip-rule="evenodd"
   d="m 201.69038,45.378283 c 19.335,-2.332 42.999,-0.335 64,-1 -10.413,5.981 -22.194,14.471 -24,29 -2.282,18.357 9.696,32.770997 24,39.999997 -21.333,0 -42.667,0 -64,0 30.25,-7.382 33.891,-60.163997 0,-67.999997 z"
   id="path3573"
   inkscape:connector-curvature="0"
   style="fill:#ffffff;fill-rule:evenodd" />
<path
   clip-rule="evenodd"
   d="m 286.69038,45.378283 c 19.335,-2.332 42.999,-0.335 64,-1 -20.876,4.949 -32.558,39.185 -16,57.999997 4.611,4.389 11.601,6.399 16,11 -21.333,0 -42.667,0 -64,0 30.116,-7.883 33.761,-59.634997 0,-67.999997 z"
   id="path3575"
   inkscape:connector-curvature="0"
   style="fill:#ffffff;fill-rule:evenodd" />
<path
   clip-rule="evenodd"
   d="m 421.69038,44.378283 c 0,3.333 0,6.667 0,10 -13.624,7.875 -12.981,40.933 0,48.999997 0,3.333 0,6.667 0,10 -16.667,0 -33.333,0 -50,0 30.771,-8.656 32.979,-60.331997 0,-67.999997 14.669,-2.331 33.665,-0.335 50,-1 z"
   id="path3577"
   inkscape:connector-curvature="0"
   style="fill:#ffffff;fill-rule:evenodd" />
<path
   clip-rule="evenodd"
   d="m 185.69038,49.378283 c 23.606,-3.271 38.311,11.021 36,37 -4.865,29.062997 -55.212,29.290997 -60,0 -1.717,-22.051 7.2,-33.467 24,-37 z m -10,30 c 5.124,7.877 10.141,15.859 15,23.999997 8.045,-5.621997 10.609,-16.724997 17,-23.999997 -5.386,-8.947 -9.643,-19.023 -17,-26 -3.829,9.838 -11.171,16.162 -15,26 z"
   id="path3579"
   inkscape:connector-curvature="0"
   style="fill:#ffffff;fill-rule:evenodd" />
<path
   clip-rule="evenodd"
   d="m 270.69038,49.378283 c 47.086,-7.174 44.522,58.921997 7,59.999997 -35.658,1.024 -43.441,-53.900997 -7,-59.999997 z m -10,30 c 6.17,7.497 9.055,18.278 17,23.999997 4.62,-8.379997 9.605,-16.394997 15,-23.999997 -5.238,-9.095 -10.075,-18.592 -17,-26 -4.002,9.664 -11.17,16.163 -15,26 z"
   id="path3581"
   inkscape:connector-curvature="0"
   style="fill:#ffffff;fill-rule:evenodd" />
<path
   clip-rule="evenodd"
   d="m 355.69038,49.378283 c -0.003,10e-4 0.355,-0.903 1,-1 45.165,-6.771 44.809,61.649997 4,60.999997 -34.049,-0.543 -40.281,-53.828997 -5,-59.999997 z m -10,30 c 5.259,8.408 10.097,17.236 16,24.999997 5.122,-8.877997 10.934,-17.065997 16,-25.999997 -6.246,-7.754 -9.999,-18.001 -17,-25 -4.289,9.378 -11.192,16.141 -15,26 z"
   id="path3583"
   inkscape:connector-curvature="0"
   style="fill:#ffffff;fill-rule:evenodd" />
<path
   clip-rule="evenodd"
   d="m 421.69038,61.378283 c 0,11.667 0,23.333 0,35 -7.521,-7.649 -7.786,-27.436 0,-35 z"
   id="path3585"
   inkscape:connector-curvature="0"
   style="fill:#ffffff;fill-rule:evenodd" />
<path
   clip-rule="evenodd"
   d="m 190.69038,62.378283 c 5.883,3.45 7.133,11.533 12,16 -3.034,5.966 -7.72,10.28 -10,17 -5.541,-3.793 -6.906,-11.761 -12,-16 3.018,-5.982 7.358,-10.642 10,-17 z"
   id="path3587"
   inkscape:connector-curvature="0"
   style="fill:#ffffff;fill-rule:evenodd" />
<path
   clip-rule="evenodd"
   d="m 275.69038,62.378283 c 4.994,4.006 7.67,10.33 11,16 -2.39,6.61 -6.691,11.309 -10,17 -4.306,-4.694 -6.442,-11.558 -11,-16 3.144,-5.856 7.182,-10.818 10,-17 z"
   id="path3589"
   inkscape:connector-curvature="0"
   style="fill:#ffffff;fill-rule:evenodd" />
<path
   clip-rule="evenodd"
   d="m 360.69038,62.378283 c 5.163,3.837 7.359,10.641 11,16 -2.28,6.72 -6.966,11.034 -10,17 -4.558,-4.442 -6.694,-11.306 -11,-16 2.662,-6.338 7.145,-10.855 10,-17 z"
   id="path3591"
   inkscape:connector-curvature="0"
   style="fill:#ffffff;fill-rule:evenodd" />
<path
   clip-rule="evenodd"
   d="m 123.69038,78.378283 c 7.613,6.406 3.55,22.108997 -10,19 -11.794,-4.993 -5.941,-26.062 10,-19 z"
   id="path3593"
   inkscape:connector-curvature="0"
   style="fill:#ffffff;fill-rule:evenodd" />
<path
   clip-rule="evenodd"
   d="m 114.69038,116.37828 c 7.381,-2.093 14.052,2.246 13,11 -2.776,23.108 -35.333997,-4.668 -13,-11 z"
   id="path3595"
   inkscape:connector-curvature="0"
   style="fill:#ffffff;fill-rule:evenodd" />
<path
   clip-rule="evenodd"
   d="m 239.69038,117.37828 c -0.551,7.115 -1.821,13.512 -4,19 -28.667,0 -57.333,0 -86,0 -2.144,-4.523 -0.472,-12.861 -1,-19 30.333,0 60.667,0 91,0 z"
   id="path3597"
   inkscape:connector-curvature="0"
   style="fill:#ffffff;fill-rule:evenodd" />
<path
   clip-rule="evenodd"
   d="m 245.69038,117.37828 c 12,0 24,0 36,0 -5.127,31.206 -12.229,60.438 -17,92 -8.924,-28.076 -12.946,-61.054 -19,-92 z"
   id="path3599"
   inkscape:connector-curvature="0"
   style="fill:#ffffff;fill-rule:evenodd" />
<path
   clip-rule="evenodd"
   d="m 287.69038,117.37828 c 12,0 24,0 36,0 -6.15,30.516 -11.604,61.729 -18,92 -7.325,-28.686 -13.779,-63.541 -18,-92 z"
   id="path3601"
   inkscape:connector-curvature="0"
   style="fill:#ffffff;fill-rule:evenodd" />
<path
   clip-rule="evenodd"
   d="m 328.69038,117.37828 c 12,0 24,0 36,0 -3.61,28.737 -11.934,61.39 -17,92 -8.161,-28.839 -12.257,-61.743 -19,-92 z"
   id="path3603"
   inkscape:connector-curvature="0"
   style="fill:#ffffff;fill-rule:evenodd" />
<path
   clip-rule="evenodd"
   d="m 370.69038,117.37828 c 12,0 24,0 36,0 -6.272,30.728 -9.631,64.369 -19,92 -4.758,-31.575 -12.108,-60.559 -17,-92 z"
   id="path3605"
   inkscape:connector-curvature="0"
   style="fill:#ffffff;fill-rule:evenodd" />
<path
   clip-rule="evenodd"
   d="m 421.69038,117.37828 c 0,15.333 0,30.667 0,46 -3.8,-14.533 -6.509,-30.157 -9,-46 3,0 6,0 9,0 z"
   id="path3607"
   inkscape:connector-curvature="0"
   style="fill:#ffffff;fill-rule:evenodd" />
<path
   clip-rule="evenodd"
   d="m 259.69038,216.37828 c -11.333,0 -22.667,0 -34,0 4.5,-29.834 11.724,-56.943 16,-87 8.503,26.497 11.878,58.122 18,87 z"
   id="path3609"
   inkscape:connector-curvature="0"
   style="fill:#ffffff;fill-rule:evenodd" />
<path
   clip-rule="evenodd"
   d="m 301.69038,216.37828 c -11.333,0 -22.667,0 -34,0 5.817,-29.183 8.943,-61.057 18,-87 4.183,30.15 11.133,57.534 16,87 z"
   id="path3611"
   inkscape:connector-curvature="0"
   style="fill:#ffffff;fill-rule:evenodd" />
<path
   clip-rule="evenodd"
   d="m 343.69038,216.37828 c -11.667,0 -23.333,0 -35,0 5.865,-28.801 11.537,-57.796 17,-87 7.477,27.523 11.461,58.539 18,87 z"
   id="path3613"
   inkscape:connector-curvature="0"
   style="fill:#ffffff;fill-rule:evenodd" />
<path
   clip-rule="evenodd"
   d="m 384.69038,216.37828 c -11.333,0 -22.667,0 -34,0 5.655,-29.011 10.884,-58.449 17,-87 6.895,27.772 12.068,57.265 17,87 z"
   id="path3615"
   inkscape:connector-curvature="0"
   style="fill:#ffffff;fill-rule:evenodd" />
<path
   clip-rule="evenodd"
   d="m 421.69038,186.37828 c 0,10 0,20 0,30 -9.667,0 -19.333,0 -29,0 5.852,-29.148 9.557,-60.443 18,-87 2.804,19.862 6.671,38.662 11,57 z"
   id="path3617"
   inkscape:connector-curvature="0"
   style="fill:#ffffff;fill-rule:evenodd" />
<path
   clip-rule="evenodd"
   d="m 235.69038,140.37828 c -0.669,5.997 -2.616,10.718 -3,17 -28,0 -56,0 -84,0 0,-5.667 0,-11.333 0,-17 29,0 58,0 87,0 z"
   id="path3619"
   inkscape:connector-curvature="0"
   style="fill:#ffffff;fill-rule:evenodd" />
<path
   clip-rule="evenodd"
   d="m 2.690383,162.37828 c 12.333,0 24.667,0 37,0 -2.632,17.397 -8.175,37.117 -8,54 -9.667,0 -19.333,0 -29,0 0,-18 0,-36 0,-54 z"
   id="path3621"
   inkscape:connector-curvature="0"
   style="fill:#ffffff;fill-rule:evenodd" />
<path
   clip-rule="evenodd"
   d="m 49.690383,216.37828 c -5,0 -10,0 -15,0 3.182,-17.818 6.32,-35.68 9,-54 5,0 10,0 15,0 -3.079,17.922 -5.879,36.121 -9,54 z"
   id="path3623"
   inkscape:connector-curvature="0"
   style="fill:#ffffff;fill-rule:evenodd" />
<path
   clip-rule="evenodd"
   d="m 67.690383,216.37828 c -4.667,0 -9.333,0 -14,0 3.454,-17.546 6.879,-35.12 9,-54 4.667,0 9.333,0 14,0 -2.309,18.691 -5.639,36.361 -9,54 z"
   id="path3625"
   inkscape:connector-curvature="0"
   style="fill:#ffffff;fill-rule:evenodd" />
<path
   clip-rule="evenodd"
   d="m 87.690383,216.37828 c -5,0 -10,0 -15,0 2.999,-18.002 6.001,-35.998 9,-54 5,0 10,0 15,0 -3.588,17.412 -6.803,35.197 -9,54 z"
   id="path3627"
   inkscape:connector-curvature="0"
   style="fill:#ffffff;fill-rule:evenodd" />
<path
   clip-rule="evenodd"
   d="m 105.69038,216.37828 c -4.667,0 -9.332997,0 -13.999997,0 3.085,-17.915 6.689,-35.311 8.999997,-54 4.667,0 9.333,0 14,0 -2.547,18.453 -6.168,35.831 -9,54 z"
   id="path3629"
   inkscape:connector-curvature="0"
   style="fill:#ffffff;fill-rule:evenodd" />
<path
   clip-rule="evenodd"
   d="m 124.69038,216.37828 c -4.667,0 -9.333,0 -14,0 2.197,-18.803 5.412,-36.588 9,-54 4.667,0 9.333,0 14,0 -2.522,18.479 -5.521,36.479 -9,54 z"
   id="path3631"
   inkscape:connector-curvature="0"
   style="fill:#ffffff;fill-rule:evenodd" />
<path
   clip-rule="evenodd"
   d="m 143.69038,216.37828 c -4.667,0 -9.333,0 -14,0 2.76,-18.24 5.762,-36.238 9,-54 4.667,0 9.333,0 14,0 -3.238,17.762 -6.584,35.416 -9,54 z"
   id="path3633"
   inkscape:connector-curvature="0"
   style="fill:#ffffff;fill-rule:evenodd" />
<path
   clip-rule="evenodd"
   d="m 162.69038,216.37828 c -5,0 -10,0 -15,0 3.479,-17.521 6.478,-35.521 9,-54 5,0 10,0 15,0 -3.063,17.937 -6.359,35.641 -9,54 z"
   id="path3635"
   inkscape:connector-curvature="0"
   style="fill:#ffffff;fill-rule:evenodd" />
<path
   clip-rule="evenodd"
   d="m 180.69038,216.37828 c -4.333,0 -8.667,0 -13,0 1.661,-19.006 6.65,-34.683 8,-54 4.667,0 9.333,0 14,0 -2.203,18.797 -5.605,36.396 -9,54 z"
   id="path3637"
   inkscape:connector-curvature="0"
   style="fill:#ffffff;fill-rule:evenodd" />
<path
   clip-rule="evenodd"
   d="m 200.69038,216.37828 c -5,0 -10,0 -15,0 2.938,-18.062 5.934,-36.065 9,-54 5,0 10,0 15,0 -3.378,17.622 -6.596,35.403 -9,54 z"
   id="path3639"
   inkscape:connector-curvature="0"
   style="fill:#ffffff;fill-rule:evenodd" />
<path
   clip-rule="evenodd"
   d="m 220.69038,216.37828 c -5.333,0 -10.667,0 -16,0 3.238,-17.762 6.24,-35.76 9,-54 5.667,0 11.333,0 17,0 -2.978,18.356 -6.608,36.059 -10,54 z"
   id="path3641"
   inkscape:connector-curvature="0"
   style="fill:#ffffff;fill-rule:evenodd" />
<g
   id="g3643"
   transform="translate(91.690383,-192.91172)"
   sodipodi:insensitive="true">
	
	
	
	
	
	
	
	
	
	
	
	
	
	
	<path
   clip-rule="evenodd"
   d="m 330,197.29 c 0,1.333 0,2.667 0,4 -12.136,0.293 -11.261,20.404 0,21 0,1.333 0,2.667 0,4 -18.133,0.947 -18.228,-30.033 0,-29 z"
   id="path3673"
   inkscape:connector-curvature="0"
   style="fill-rule:evenodd" />
	<path
   clip-rule="evenodd"
   d="m 23,227.29 c 20.555,-3.661 22.614,26.104 6,29 -17.386,3.03 -26.864,-25.284 -6,-29 z m 13,12 c -0.813,-5.378 -4.38,-10.516 -14,-7 -24.275,8.871 18.042,33.719 14,7 z"
   id="path3675"
   inkscape:connector-curvature="0"
   style="fill-rule:evenodd" />
	<path
   clip-rule="evenodd"
   d="m 99,246.29 c 7.357,6.977 11.614,17.053 17,26 -6.391,7.275 -8.955,18.378 -17,24 -4.859,-8.141 -9.876,-16.123 -15,-24 3.829,-9.838 11.171,-16.162 15,-26 z m -10,26 c 5.094,4.239 6.459,12.207 12,16 2.28,-6.72 6.966,-11.034 10,-17 -4.867,-4.467 -6.117,-12.55 -12,-16 -2.642,6.358 -6.982,11.018 -10,17 z"
   id="path3677"
   inkscape:connector-curvature="0"
   style="fill-rule:evenodd" />
	<path
   clip-rule="evenodd"
   d="m 184,246.29 c 6.925,7.408 11.762,16.905 17,26 -5.395,7.605 -10.38,15.62 -15,24 -7.945,-5.722 -10.83,-16.503 -17,-24 3.83,-9.837 10.998,-16.336 15,-26 z m -10,26 c 4.558,4.442 6.694,11.306 11,16 3.309,-5.691 7.61,-10.39 10,-17 -3.33,-5.67 -6.006,-11.994 -11,-16 -2.818,6.182 -6.856,11.144 -10,17 z"
   id="path3679"
   inkscape:connector-curvature="0"
   style="fill-rule:evenodd" />
	<path
   clip-rule="evenodd"
   d="m 269,246.29 c 7.001,6.999 10.754,17.246 17,25 -5.066,8.934 -10.878,17.122 -16,26 -5.903,-7.764 -10.741,-16.592 -16,-25 3.808,-9.859 10.711,-16.622 15,-26 z m -10,26 c 4.306,4.694 6.442,11.558 11,16 3.034,-5.966 7.72,-10.28 10,-17 -3.641,-5.359 -5.837,-12.163 -11,-16 -2.855,6.145 -7.338,10.662 -10,17 z"
   id="path3681"
   inkscape:connector-curvature="0"
   style="fill-rule:evenodd" />
	<path
   clip-rule="evenodd"
   d="m 330,247.29 c 0,2.333 0,4.667 0,7 -7.786,7.564 -7.521,27.351 0,35 0,2.333 0,4.667 0,7 -12.981,-8.067 -13.624,-41.125 0,-49 z"
   id="path3683"
   inkscape:connector-curvature="0"
   style="fill-rule:evenodd" />
	<path
   clip-rule="evenodd"
   d="m 21,266.29 c 10.522,-3.133 17.244,2.908 19,8 7.625,22.104 -32.722,30.759 -29,3 0.749,-5.585 3.858,-8.883 10,-11 z m 1,24 c 13.55,3.109 17.613,-12.594 10,-19 -15.941,-7.062 -21.794,14.007 -10,19 z"
   id="path3685"
   inkscape:connector-curvature="0"
   style="fill-rule:evenodd" />
	<path
   clip-rule="evenodd"
   d="m 20,305.29 c 3.972,-2.599 11.784,-0.481 15,1 7.093,5.748 7.093,19.252 0,25 -13.905,6.982 -28.799,-4.131 -23,-20 2.904,-1.763 3.952,-5.382 8,-6 z m 16,15 c 1.052,-8.754 -5.619,-13.093 -13,-11 -22.334,6.332 10.224,34.108 13,11 z"
   id="path3687"
   inkscape:connector-curvature="0"
   style="fill-rule:evenodd" />
	<path
   d="m 24.0625,194.28125 c -0.121683,3.7768 -0.307951,7.59026 -0.0625,11 l -113,0 0,4 c 29.634,-8.49 36.643,30.288 14,35 17.077,2.305 18.723,33.187 0,35 16.656,3.275 18.474,32.104 1,36 20.964,6.325 14.689,43.236 -15,35 l 0,5 37,0 c -2.632,17.397 -8.175,37.117 -8,54 l 3,0 c 3.182,-17.818 6.32,-35.68 9,-54 l 15,0 c -3.079,17.922 -5.879,36.121 -9,54 l 4,0 c 3.454,-17.546 6.879,-35.12 9,-54 l 14,0 c -2.309,18.691 -5.639,36.361 -9,54 l 5,0 c 2.999,-18.002 6.001,-35.998 9,-54 l 15,0 c -3.588,17.412 -6.803,35.197 -9,54 l 4,0 c 3.085,-17.915 6.689,-35.311 9,-54 l 14,0 c -2.547,18.453 -6.168,35.831 -9,54 l 5,0 c 2.197,-18.803 5.412,-36.588 9,-54 l 14,0 c -2.522,18.479 -5.521,36.479 -9,54 l 5,0 c 2.76,-18.24 5.762,-36.238 9,-54 l 14,0 c -3.238,17.762 -6.584,35.416 -9,54 l 4,0 c 3.479,-17.521 6.478,-35.521 9,-54 l 15,0 c -3.063,17.937 -6.359,35.641 -9,54 l 5,0 c 1.661,-19.006 6.65,-34.683 8,-54 l 14,0 c -2.203,18.797 -5.605,36.396 -9,54 l 5,0 c 2.938,-18.062 5.934,-36.065 9,-54 l 15,0 c -3.378,17.622 -6.596,35.403 -9,54 l 4,0 c 3.238,-17.762 6.24,-35.76 9,-54 l 17,0 c -2.978,18.356 -6.608,36.059 -10,54 l 5,0 c 4.5,-29.834 11.724,-56.943 16,-87 8.503,26.497 11.878,58.122 18,87 l 8,0 c 5.817,-29.183 8.943,-61.057 18,-87 4.183,30.15 11.133,57.534 16,87 l 7,0 c 5.865,-28.801 11.537,-57.796 17,-87 7.477,27.523 11.461,58.539 18,87 l 7,0 c 5.655,-29.011 10.884,-58.449 17,-87 6.895,27.771 12.068,57.265 17,87 l 8,0 c 5.852,-29.148 9.557,-60.443 18,-87 2.804,19.862 6.671,38.662 11,57 l 0,-23 c -3.8,-14.533 -6.509,-30.157 -9,-46 l 9,0 0,-4 -50,0 c 30.771,-8.656 32.979,-60.332 0,-68 14.669,-2.331 33.665,-0.335 50,-1 l 0,-4 -113,0 c -2.378,-5.956 -3.847,-12.82 -7,-18 20.001,-2.332 44.332,-0.334 66,-1 3.952,3.715 5.19,10.143 11,12 28.294,4.492 24.356,-33.829 1,-29 -6.065,1.254 -7.999,5.838 -11,12 l -69,0 c -1.40261,-5.20482 -3.05672,-10.14835 -4.8125,-15 l -4.5625,0 c 4.54795,12.9112 9.01411,25.90168 13.375,39 l -14,0 c -4.83999,-12.96093 -9.63456,-25.9706 -14.40625,-39 l -4.71875,0 c 4.53048,13.09962 8.93463,26.10323 13.125,39 l -12,0 c -4.80863,-12.9917 -9.58668,-25.98781 -14.375,-39 l -5.15625,0 c 1.34978,3.49222 2.6624,7.02662 3.53125,11 l -135,0 c -0.721291,-2.68053 -1.141215,-6.78951 -1.21875,-11 l -3.71875,0 z m 230.34375,0 c 1.7929,1.73831 3.65343,3.40926 5.59375,5 2.34258,-2.10992 5.16358,-3.72772 8.34375,-5 l -6.34375,0 -7.59375,0 z m 38.40625,7.59375 c 13.03571,-0.58256 11.69156,19.85969 0.1875,20.40625 -10.645,0.506 -16.509,-16.78 -3,-20 0.998,-0.23788 1.94345,-0.36741 2.8125,-0.40625 z M -54.25,207.46875 c 24.596075,-0.82906 33.138891,29.34283 11.25,36.8125 15.64,2.897 17.898,32.747 0,35 7.265,5.068 15.11,9.557 13,24 -3.274,5.06 -6.897,9.77 -13,12 24.176,8.596 11.499,45.669 -21,35 8.508,-6.787 9.95,-28.771 -1,-34 10.12,-7.753 10.12,-29.247 0,-37 10.61,-5.159 10.398,-28.782 0,-34 9.42,-7.264 10.568,-27.931 1,-36 3.478563,-1.13619 6.729429,-1.71069 9.75,-1.8125 z m 21.25,1.8125 28,0 0,141 -26,0 c -0.846,-3.507 5.901,-9.205 6,-17 0.115,-8.997 -5.506,-13.005 -9,-19 11.677,-5.449 10.845,-28.261 0,-34 11.551,-7.859 10.185,-28.73 0,-37 12.307,-5.325 9.794,-26.865 1,-34 z m 34,0 51,0 c 2.329,45.004 0.336,94.33 1,141 l -53,0 c 0.66700001,-46.667 -1.333,-96 1,-141 z m 57,0 108,0 c 2.693,7.974 6.646,14.688 8,24 l -117,0 c 0.659,-7.675 -1.323,-17.989 1,-24 z m 75.21875,27.84375 c 13.49906,-0.0427 27.65562,0.57188 40.78125,0.15625 -10.413,5.981 -22.194,14.471 -24,29 -2.282,18.357 9.696,32.771 24,40 l -64,0 c 30.25,-7.382 33.891,-60.164 0,-68 7.25063,-0.8745 15.11931,-1.13062 23.21875,-1.15625 z m 85,0 c 13.49906,-0.0427 27.65562,0.57188 40.78125,0.15625 -20.876,4.949 -32.558,39.185 -16,58 4.611,4.389 11.601,6.399 16,11 l -64,0 c 30.116,-7.883 33.761,-59.635 0,-68 7.25063,-0.8745 15.11931,-1.13062 23.21875,-1.15625 z M 57,237.28125 l 32,0 c -10.814,6.963 -22.195,13.985 -24,29 -2.41,20.052 10.209,32.062 24,40 l -32,0 0,-69 z m 214.0625,3.53125 c 38.99095,-0.0369 36.83358,62.08828 -2.0625,61.46875 -34.049,-0.543 -40.281,-53.829 -5,-60 -0.003,0.001 0.355,-0.903 1,-1 2.11711,-0.31739 4.14491,-0.46693 6.0625,-0.46875 z m -85.78125,0.9375 c 40.47311,-0.58026 36.48191,59.50378 0.71875,60.53125 -35.658,1.024 -43.441,-53.901 -7,-60 2.20716,-0.33628 4.29077,-0.50271 6.28125,-0.53125 z m -84.875,0.0937 c 19.81583,-0.0268 31.68809,13.89403 29.59375,37.4375 -4.865,29.063 -55.212,29.291 -60,0 -1.717,-22.051 7.2,-33.467 24,-37 2.213063,-0.30666 4.356337,-0.43473 6.40625,-0.4375 z M 57,310.28125 l 91,0 c -0.551,7.115 -1.821,13.512 -4,19 l -86,0 c -2.144,-4.523 -0.472,-12.861 -1,-19 z m 97,0 36,0 c -5.127,31.206 -12.229,60.438 -17,92 -8.924,-28.076 -12.946,-61.054 -19,-92 z m 42,0 36,0 c -6.15,30.516 -11.604,61.729 -18,92 -7.325,-28.686 -13.779,-63.541 -18,-92 z m 41,0 36,0 c -3.61,28.737 -11.934,61.39 -17,92 -8.161,-28.839 -12.257,-61.743 -19,-92 z m 42,0 36,0 c -6.272,30.728 -9.631,64.369 -19,92 -4.758,-31.575 -12.108,-60.559 -17,-92 z m -222,23 87,0 c -0.669,5.997 -2.616,10.718 -3,17 l -84,0 0,-17 z"
   transform="translate(0,-2.9081248e-6)"
   id="path3689"
   inkscape:connector-curvature="0" />
</g>
<rect
   y="1.8466301"
   x="1.846633"
   height="213.87552"
   width="421.875"
   id="rect4472"
   style="fill:none;stroke:#000000;stroke-width:3.69326591;stroke-linejoin:round;stroke-miterlimit:4;stroke-opacity:1;stroke-dasharray:none"
   sodipodi:insensitive="true" /></svg>